<?xml version="1.0" encoding="UTF-8" standalone="no"?>
<svg
   xmlns:dc="http://purl.org/dc/elements/1.1/"
   xmlns:cc="http://creativecommons.org/ns#"
   xmlns:rdf="http://www.w3.org/1999/02/22-rdf-syntax-ns#"
   xmlns:svg="http://www.w3.org/2000/svg"
   xmlns="http://www.w3.org/2000/svg"
   xmlns:sodipodi="http://sodipodi.sourceforge.net/DTD/sodipodi-0.dtd"
   xmlns:inkscape="http://www.inkscape.org/namespaces/inkscape"
   id="aa7bae02-e79e-4d6b-a496-aba15f39787c"
   data-name="Layer 1"
   width="1144"
   height="830"
   viewBox="0 0 1144 829.99999"
   version="1.1"
   sodipodi:docname="build.svg"
   inkscape:version="0.92.3 (2405546, 2018-03-11)">
  <metadata
     id="metadata421">
    <rdf:RDF>
      <cc:Work
         rdf:about="">
        <dc:format>image/svg+xml</dc:format>
        <dc:type
           rdf:resource="http://purl.org/dc/dcmitype/StillImage" />
        <dc:title>developer activity</dc:title>
      </cc:Work>
    </rdf:RDF>
  </metadata>
  <defs
     id="defs419" />
  <sodipodi:namedview
     pagecolor="#ffffff"
     bordercolor="#666666"
     borderopacity="1"
     objecttolerance="10"
     gridtolerance="10"
     guidetolerance="10"
     inkscape:pageopacity="0"
     inkscape:pageshadow="2"
     inkscape:window-width="1920"
     inkscape:window-height="1010"
     id="namedview417"
     showgrid="false"
     inkscape:zoom="0.94405594"
     inkscape:cx="379.59226"
     inkscape:cy="380.42561"
     inkscape:window-x="0"
     inkscape:window-y="0"
     inkscape:window-maximized="1"
     inkscape:current-layer="aa7bae02-e79e-4d6b-a496-aba15f39787c" />
  <title
     id="title2">developer activity</title>
  <path
     d="m 1102.5257,496.17414 a 168.72944,168.72944 0 0 1 -6.3533,46.00363 167.0043,167.0043 0 0 1 -17.8728,41.06937 c 0,46.46738 -31.3678,86.6278 -76.8984,105.73415 a 155.1695,155.1695 0 0 1 -60.03657,11.8719 H 242.89784 c -37.33158,0 -71.92705,-10.07257 -100.29904,-27.23118 A 172.29101,172.29101 0 0 1 119.56916,657.02917 C 88.034411,629.92784 68.482868,592.47569 68.482868,551.10953 A 167.4124,167.4124 0 0 1 41.474286,459.54746 c 0,-68.04085 40.2439,-126.54707 97.896834,-152.37774 a 161.86599,161.86599 0 0 1 23.66034,-8.45873 q 4.29429,-1.16864 8.68133,-2.09614 a 162.67291,162.67291 0 0 1 23.66033,-3.24622 q 4.31284,-0.26897 8.67205,-0.30607 h 1.59529 c 3.20913,0 6.39043,0.1113 9.55317,0.29679 l 1.0388,-1.76223 q 1.91063,-3.19058 3.91402,-6.31623 3.61722,-5.6948 7.58688,-11.22265 4.15517,-5.83393 8.67206,-11.48236 l 0.76982,-0.92749 q 2.55988,-3.19058 5.23106,-6.30695 8.34743,-9.7294 17.62235,-18.87448 c 66.88149,-65.55517 171.66032,-107.75608 289.45187,-107.75608 91.65481,0 175.43521,25.55242 239.60842,67.77188 a 161.55065,161.55065 0 0 1 79.7087,-20.95206 c 90.65312,0 164.16619,74.54258 164.16619,166.49419 a 171.49337,171.49337 0 0 1 -0.9275,17.41831 166.94865,166.94865 0 0 1 70.4894,136.73094 z"
     id="path4"
     inkscape:connector-curvature="0"
     style="opacity:1;fill:#550044;stroke-width:0.9274925" />
  <path
     d="m 260.04717,236.42986 v 18.87448 h -17.62235 q 8.2825,-9.72012 17.62235,-18.87448 z"
     id="path6"
     inkscape:connector-curvature="0"
     style="opacity:0.2;fill:#ffc107;stroke-width:0.9274925" />
  <rect
     x="268.72852"
     y="231.644"
     width="23.660334"
     height="23.660334"
     id="rect8"
     style="opacity:0.2;fill:#ffc107;stroke-width:0.9274925" />
  <rect
     x="301.06088"
     y="231.644"
     width="23.660334"
     height="23.660334"
     id="rect10"
     style="opacity:0.2;fill:#ffc107;stroke-width:0.9274925" />
  <rect
     x="333.40256"
     y="231.644"
     width="23.660334"
     height="23.660334"
     id="rect12"
     style="opacity:0.2;fill:#ffc107;stroke-width:0.9274925" />
  <rect
     x="365.73492"
     y="231.644"
     width="23.660334"
     height="23.660334"
     id="rect14"
     style="opacity:0.2;fill:#ffc107;stroke-width:0.9274925" />
  <rect
     x="398.07663"
     y="231.644"
     width="23.660334"
     height="23.660334"
     id="rect16"
     style="opacity:0.2;fill:#ffc107;stroke-width:0.9274925" />
  <rect
     x="430.41827"
     y="231.644"
     width="23.660334"
     height="23.660334"
     id="rect18"
     style="fill:#ffc107;stroke-width:0.9274925" />
  <rect
     x="462.75064"
     y="231.644"
     width="23.660334"
     height="23.660334"
     id="rect20"
     style="opacity:0.2;fill:#ffc107;stroke-width:0.9274925" />
  <rect
     x="495.09232"
     y="231.644"
     width="23.660334"
     height="23.660334"
     id="rect22"
     style="opacity:0.2;fill:#ffc107;stroke-width:0.9274925" />
  <rect
     x="527.42474"
     y="231.644"
     width="23.660334"
     height="23.660334"
     id="rect24"
     style="opacity:0.2;fill:#ffc107;stroke-width:0.9274925" />
  <rect
     x="559.76636"
     y="231.644"
     width="23.660334"
     height="23.660334"
     id="rect26"
     style="fill:#ffc107;stroke-width:0.9274925" />
  <rect
     x="592.10803"
     y="231.644"
     width="23.660334"
     height="23.660334"
     id="rect28"
     style="opacity:0.2;fill:#ffc107;stroke-width:0.9274925" />
  <rect
     x="624.44043"
     y="231.644"
     width="23.660334"
     height="23.660334"
     id="rect30"
     style="opacity:0.2;fill:#ffc107;stroke-width:0.9274925" />
  <rect
     x="656.78204"
     y="231.644"
     width="23.660334"
     height="23.660334"
     id="rect32"
     style="opacity:0.2;fill:#ffc107;stroke-width:0.9274925" />
  <rect
     x="689.12378"
     y="231.644"
     width="23.660334"
     height="23.660334"
     id="rect34"
     style="opacity:0.2;fill:#ffc107;stroke-width:0.9274925" />
  <rect
     x="721.45618"
     y="231.644"
     width="23.660334"
     height="23.660334"
     id="rect36"
     style="opacity:0.2;fill:#ffc107;stroke-width:0.9274925" />
  <rect
     x="753.79785"
     y="231.644"
     width="23.660334"
     height="23.660334"
     id="rect38"
     style="opacity:0.2;fill:#ffc107;stroke-width:0.9274925" />
  <rect
     x="786.13019"
     y="231.644"
     width="23.660334"
     height="23.660334"
     id="rect40"
     style="fill:#ffc107;stroke-width:0.9274925" />
  <rect
     x="818.47186"
     y="231.644"
     width="23.660334"
     height="23.660334"
     id="rect42"
     style="fill:#ffc107;stroke-width:0.9274925" />
  <rect
     x="850.81354"
     y="231.644"
     width="23.660334"
     height="23.660334"
     id="rect44"
     style="opacity:0.2;fill:#ffc107;stroke-width:0.9274925" />
  <rect
     x="883.14587"
     y="231.644"
     width="23.660334"
     height="23.660334"
     id="rect46"
     style="opacity:0.2;fill:#ffc107;stroke-width:0.9274925" />
  <rect
     x="915.48761"
     y="231.644"
     width="23.660334"
     height="23.660334"
     id="rect48"
     style="fill:#ffc107;stroke-width:0.9274925" />
  <rect
     x="947.82001"
     y="231.644"
     width="23.660334"
     height="23.660334"
     id="rect50"
     style="fill:#ffc107;stroke-width:0.9274925" />
  <path
     d="m 227.71478,274.04896 v 11.22266 h -7.58688 q 3.61722,-5.7319 7.58688,-11.22266 z"
     id="path52"
     inkscape:connector-curvature="0"
     style="fill:#ffc107;stroke-width:0.9274925" />
  <rect
     x="236.38684"
     y="261.6113"
     width="23.660334"
     height="23.660334"
     id="rect54"
     style="opacity:0.2;fill:#ffc107;stroke-width:0.9274925" />
  <rect
     x="268.72852"
     y="261.6113"
     width="23.660334"
     height="23.660334"
     id="rect56"
     style="fill:#ffc107;stroke-width:0.9274925" />
  <rect
     x="301.06088"
     y="261.6113"
     width="23.660334"
     height="23.660334"
     id="rect58"
     style="opacity:0.2;fill:#ffc107;stroke-width:0.9274925" />
  <rect
     x="333.40256"
     y="261.6113"
     width="23.660334"
     height="23.660334"
     id="rect60"
     style="opacity:0.7;fill:#ffc107;stroke-width:0.9274925" />
  <rect
     x="365.73492"
     y="261.6113"
     width="23.660334"
     height="23.660334"
     id="rect62"
     style="opacity:0.2;fill:#ffc107;stroke-width:0.9274925" />
  <rect
     x="398.07663"
     y="261.6113"
     width="23.660334"
     height="23.660334"
     id="rect64"
     style="opacity:0.4;fill:#ffc107;stroke-width:0.9274925" />
  <rect
     x="430.41827"
     y="261.6113"
     width="23.660334"
     height="23.660334"
     id="rect66"
     style="fill:#ffc107;stroke-width:0.9274925" />
  <rect
     x="462.75064"
     y="261.6113"
     width="23.660334"
     height="23.660334"
     id="rect68"
     style="opacity:0.4;fill:#ffc107;stroke-width:0.9274925" />
  <rect
     x="495.09232"
     y="261.6113"
     width="23.660334"
     height="23.660334"
     id="rect70"
     style="opacity:0.2;fill:#ffc107;stroke-width:0.9274925" />
  <rect
     x="527.42474"
     y="261.6113"
     width="23.660334"
     height="23.660334"
     id="rect72"
     style="opacity:0.4;fill:#ffc107;stroke-width:0.9274925" />
  <rect
     x="559.76636"
     y="261.6113"
     width="23.660334"
     height="23.660334"
     id="rect74"
     style="fill:#ffc107;stroke-width:0.9274925" />
  <rect
     x="592.10803"
     y="261.6113"
     width="23.660334"
     height="23.660334"
     id="rect76"
     style="opacity:0.4;fill:#ffc107;stroke-width:0.9274925" />
  <rect
     x="624.44043"
     y="261.6113"
     width="23.660334"
     height="23.660334"
     id="rect78"
     style="opacity:0.4;fill:#ffc107;stroke-width:0.9274925" />
  <rect
     x="656.78204"
     y="261.6113"
     width="23.660334"
     height="23.660334"
     id="rect80"
     style="opacity:0.2;fill:#ffc107;stroke-width:0.9274925" />
  <rect
     x="689.12378"
     y="261.6113"
     width="23.660334"
     height="23.660334"
     id="rect82"
     style="opacity:0.4;fill:#ffc107;stroke-width:0.9274925" />
  <rect
     x="721.45618"
     y="261.6113"
     width="23.660334"
     height="23.660334"
     id="rect84"
     style="opacity:0.4;fill:#ffc107;stroke-width:0.9274925" />
  <rect
     x="753.79785"
     y="261.6113"
     width="23.660334"
     height="23.660334"
     id="rect86"
     style="opacity:0.2;fill:#ffc107;stroke-width:0.9274925" />
  <rect
     x="786.13019"
     y="261.6113"
     width="23.660334"
     height="23.660334"
     id="rect88"
     style="opacity:0.2;fill:#ffc107;stroke-width:0.9274925" />
  <rect
     x="818.47186"
     y="261.6113"
     width="23.660334"
     height="23.660334"
     id="rect90"
     style="opacity:0.4;fill:#ffc107;stroke-width:0.9274925" />
  <rect
     x="850.81354"
     y="261.6113"
     width="23.660334"
     height="23.660334"
     id="rect92"
     style="opacity:0.2;fill:#ffc107;stroke-width:0.9274925" />
  <rect
     x="883.14587"
     y="261.6113"
     width="23.660334"
     height="23.660334"
     id="rect94"
     style="fill:#ffc107;stroke-width:0.9274925" />
  <rect
     x="915.48761"
     y="261.6113"
     width="23.660334"
     height="23.660334"
     id="rect96"
     style="fill:#ffc107;stroke-width:0.9274925" />
  <rect
     x="947.82001"
     y="261.6113"
     width="23.660334"
     height="23.660334"
     id="rect98"
     style="fill:#ffc107;stroke-width:0.9274925" />
  <path
     d="m 163.03146,298.71099 v 16.53719 h -23.66034 v -8.07846 a 161.86599,161.86599 0 0 1 23.66034,-8.45873 z"
     id="path100"
     inkscape:connector-curvature="0"
     style="opacity:0.2;fill:#ffc107;stroke-width:0.9274925" />
  <polygon
     points="140.42,201.16 140.42,181.07 165.93,177.57 165.93,201.16 "
     id="polygon102"
     style="opacity:0.2;fill:#ffc107"
     transform="matrix(0.92749252,0,0,0.92749252,41.474286,128.67378)" />
  <rect
     x="204.04518"
     y="291.58783"
     width="23.660334"
     height="23.660334"
     id="rect104"
     style="fill:#ffc107;stroke-width:0.9274925" />
  <rect
     x="236.38684"
     y="291.58783"
     width="23.660334"
     height="23.660334"
     id="rect106"
     style="opacity:0.7;fill:#ffc107;stroke-width:0.9274925" />
  <rect
     x="268.72852"
     y="291.58783"
     width="23.660334"
     height="23.660334"
     id="rect108"
     style="fill:#ffc107;stroke-width:0.9274925" />
  <rect
     x="301.06088"
     y="291.58783"
     width="23.660334"
     height="23.660334"
     id="rect110"
     style="opacity:0.7;fill:#ffc107;stroke-width:0.9274925" />
  <rect
     x="333.40256"
     y="291.58783"
     width="23.660334"
     height="23.660334"
     id="rect112"
     style="opacity:0.7;fill:#ffc107;stroke-width:0.9274925" />
  <rect
     x="365.73492"
     y="291.58783"
     width="23.660334"
     height="23.660334"
     id="rect114"
     style="opacity:0.2;fill:#ffc107;stroke-width:0.9274925" />
  <rect
     x="398.07663"
     y="291.58783"
     width="23.660334"
     height="23.660334"
     id="rect116"
     style="opacity:0.4;fill:#ffc107;stroke-width:0.9274925" />
  <rect
     x="430.41827"
     y="291.58783"
     width="23.660334"
     height="23.660334"
     id="rect118"
     style="opacity:0.4;fill:#ffc107;stroke-width:0.9274925" />
  <rect
     x="462.75064"
     y="291.58783"
     width="23.660334"
     height="23.660334"
     id="rect120"
     style="fill:#ffc107;stroke-width:0.9274925" />
  <rect
     x="495.09232"
     y="291.58783"
     width="23.660334"
     height="23.660334"
     id="rect122"
     style="opacity:0.2;fill:#ffc107;stroke-width:0.9274925" />
  <rect
     x="527.42474"
     y="291.58783"
     width="23.660334"
     height="23.660334"
     id="rect124"
     style="opacity:0.4;fill:#ffc107;stroke-width:0.9274925" />
  <rect
     x="559.76636"
     y="291.58783"
     width="23.660334"
     height="23.660334"
     id="rect126"
     style="fill:#ffc107;stroke-width:0.9274925" />
  <rect
     x="592.10803"
     y="291.58783"
     width="23.660334"
     height="23.660334"
     id="rect128"
     style="opacity:0.2;fill:#ffc107;stroke-width:0.9274925" />
  <rect
     x="624.44043"
     y="291.58783"
     width="23.660334"
     height="23.660334"
     id="rect130"
     style="opacity:0.4;fill:#ffc107;stroke-width:0.9274925" />
  <rect
     x="656.78204"
     y="291.58783"
     width="23.660334"
     height="23.660334"
     id="rect132"
     style="opacity:0.2;fill:#ffc107;stroke-width:0.9274925" />
  <rect
     x="689.12378"
     y="291.58783"
     width="23.660334"
     height="23.660334"
     id="rect134"
     style="fill:#ffc107;stroke-width:0.9274925" />
  <rect
     x="721.45618"
     y="291.58783"
     width="23.660334"
     height="23.660334"
     id="rect136"
     style="opacity:0.2;fill:#ffc107;stroke-width:0.9274925" />
  <rect
     x="753.79785"
     y="291.58783"
     width="23.660334"
     height="23.660334"
     id="rect138"
     style="opacity:0.7;fill:#ffc107;stroke-width:0.9274925" />
  <rect
     x="786.13019"
     y="291.58783"
     width="23.660334"
     height="23.660334"
     id="rect140"
     style="opacity:0.7;fill:#ffc107;stroke-width:0.9274925" />
  <rect
     x="818.47186"
     y="291.58783"
     width="23.660334"
     height="23.660334"
     id="rect142"
     style="opacity:0.4;fill:#ffc107;stroke-width:0.9274925" />
  <rect
     x="850.81354"
     y="291.58783"
     width="23.660334"
     height="23.660334"
     id="rect144"
     style="opacity:0.2;fill:#ffc107;stroke-width:0.9274925" />
  <rect
     x="883.14587"
     y="291.58783"
     width="23.660334"
     height="23.660334"
     id="rect146"
     style="fill:#ffc107;stroke-width:0.9274925" />
  <rect
     x="915.48761"
     y="291.58783"
     width="23.660334"
     height="23.660334"
     id="rect148"
     style="fill:#ffc107;stroke-width:0.9274925" />
  <rect
     x="947.82001"
     y="291.58783"
     width="23.660334"
     height="23.660334"
     id="rect150"
     style="fill:#ffc107;stroke-width:0.9274925" />
  <rect
     x="139.37112"
     y="321.55515"
     width="23.660334"
     height="23.660334"
     id="rect152"
     style="opacity:0.2;fill:#ffc107;stroke-width:0.9274925" />
  <rect
     x="171.71278"
     y="321.55515"
     width="23.660334"
     height="23.660334"
     id="rect154"
     style="opacity:0.2;fill:#ffc107;stroke-width:0.9274925" />
  <rect
     x="204.04518"
     y="321.55515"
     width="23.660334"
     height="23.660334"
     id="rect156"
     style="opacity:0.2;fill:#ffc107;stroke-width:0.9274925" />
  <rect
     x="236.38684"
     y="321.55515"
     width="23.660334"
     height="23.660334"
     id="rect158"
     style="opacity:0.2;fill:#ffc107;stroke-width:0.9274925" />
  <rect
     x="268.72852"
     y="321.55515"
     width="23.660334"
     height="23.660334"
     id="rect160"
     style="fill:#ffc107;stroke-width:0.9274925" />
  <rect
     x="301.06088"
     y="321.55515"
     width="23.660334"
     height="23.660334"
     id="rect162"
     style="opacity:0.7;fill:#ffc107;stroke-width:0.9274925" />
  <rect
     x="333.40256"
     y="321.55515"
     width="23.660334"
     height="23.660334"
     id="rect164"
     style="opacity:0.7;fill:#ffc107;stroke-width:0.9274925" />
  <rect
     x="365.73492"
     y="321.55515"
     width="23.660334"
     height="23.660334"
     id="rect166"
     style="opacity:0.2;fill:#ffc107;stroke-width:0.9274925" />
  <rect
     x="398.07663"
     y="321.55515"
     width="23.660334"
     height="23.660334"
     id="rect168"
     style="opacity:0.2;fill:#ffc107;stroke-width:0.9274925" />
  <rect
     x="430.41827"
     y="321.55515"
     width="23.660334"
     height="23.660334"
     id="rect170"
     style="opacity:0.4;fill:#ffc107;stroke-width:0.9274925" />
  <rect
     x="462.75064"
     y="321.55515"
     width="23.660334"
     height="23.660334"
     id="rect172"
     style="opacity:0.4;fill:#ffc107;stroke-width:0.9274925" />
  <rect
     x="495.09232"
     y="321.55515"
     width="23.660334"
     height="23.660334"
     id="rect174"
     style="fill:#ffc107;stroke-width:0.9274925" />
  <rect
     x="527.42474"
     y="321.55515"
     width="23.660334"
     height="23.660334"
     id="rect176"
     style="opacity:0.2;fill:#ffc107;stroke-width:0.9274925" />
  <rect
     x="559.76636"
     y="321.55515"
     width="23.660334"
     height="23.660334"
     id="rect178"
     style="opacity:0.4;fill:#ffc107;stroke-width:0.9274925" />
  <rect
     x="592.10803"
     y="321.55515"
     width="23.660334"
     height="23.660334"
     id="rect180"
     style="opacity:0.4;fill:#ffc107;stroke-width:0.9274925" />
  <rect
     x="624.44043"
     y="321.55515"
     width="23.660334"
     height="23.660334"
     id="rect182"
     style="opacity:0.4;fill:#ffc107;stroke-width:0.9274925" />
  <rect
     x="656.78204"
     y="321.55515"
     width="23.660334"
     height="23.660334"
     id="rect184"
     style="opacity:0.4;fill:#ffc107;stroke-width:0.9274925" />
  <rect
     x="689.12378"
     y="321.55515"
     width="23.660334"
     height="23.660334"
     id="rect186"
     style="opacity:0.2;fill:#ffc107;stroke-width:0.9274925" />
  <rect
     x="721.45618"
     y="321.55515"
     width="23.660334"
     height="23.660334"
     id="rect188"
     style="opacity:0.2;fill:#ffc107;stroke-width:0.9274925" />
  <rect
     x="753.79785"
     y="321.55515"
     width="23.660334"
     height="23.660334"
     id="rect190"
     style="opacity:0.2;fill:#ffc107;stroke-width:0.9274925" />
  <rect
     x="786.13019"
     y="321.55515"
     width="23.660334"
     height="23.660334"
     id="rect192"
     style="opacity:0.2;fill:#ffc107;stroke-width:0.9274925" />
  <rect
     x="818.47186"
     y="321.55515"
     width="23.660334"
     height="23.660334"
     id="rect194"
     style="opacity:0.7;fill:#ffc107;stroke-width:0.9274925" />
  <rect
     x="850.81354"
     y="321.55515"
     width="23.660334"
     height="23.660334"
     id="rect196"
     style="opacity:0.7;fill:#ffc107;stroke-width:0.9274925" />
  <rect
     x="883.14587"
     y="321.55515"
     width="23.660334"
     height="23.660334"
     id="rect198"
     style="opacity:0.4;fill:#ffc107;stroke-width:0.9274925" />
  <rect
     x="915.48761"
     y="321.55515"
     width="23.660334"
     height="23.660334"
     id="rect200"
     style="opacity:0.2;fill:#ffc107;stroke-width:0.9274925" />
  <rect
     x="947.82001"
     y="321.55515"
     width="23.660334"
     height="23.660334"
     id="rect202"
     style="fill:#ffc107;stroke-width:0.9274925" />
  <rect
     x="139.37112"
     y="351.53168"
     width="23.660334"
     height="23.660334"
     id="rect204"
     style="opacity:0.2;fill:#ffc107;stroke-width:0.9274925" />
  <rect
     x="171.71278"
     y="351.53168"
     width="23.660334"
     height="23.660334"
     id="rect206"
     style="opacity:0.2;fill:#ffc107;stroke-width:0.9274925" />
  <rect
     x="204.04518"
     y="351.53168"
     width="23.660334"
     height="23.660334"
     id="rect208"
     style="opacity:0.4;fill:#ffc107;stroke-width:0.9274925" />
  <rect
     x="236.38684"
     y="351.53168"
     width="23.660334"
     height="23.660334"
     id="rect210"
     style="opacity:0.2;fill:#ffc107;stroke-width:0.9274925" />
  <rect
     x="268.72852"
     y="351.53168"
     width="23.660334"
     height="23.660334"
     id="rect212"
     style="opacity:0.2;fill:#ffc107;stroke-width:0.9274925" />
  <rect
     x="301.06088"
     y="351.53168"
     width="23.660334"
     height="23.660334"
     id="rect214"
     style="opacity:0.7;fill:#ffc107;stroke-width:0.9274925" />
  <rect
     x="333.40256"
     y="351.53168"
     width="23.660334"
     height="23.660334"
     id="rect216"
     style="opacity:0.7;fill:#ffc107;stroke-width:0.9274925" />
  <rect
     x="365.73492"
     y="351.53168"
     width="23.660334"
     height="23.660334"
     id="rect218"
     style="opacity:0.2;fill:#ffc107;stroke-width:0.9274925" />
  <rect
     x="398.07663"
     y="351.53168"
     width="23.660334"
     height="23.660334"
     id="rect220"
     style="opacity:0.2;fill:#ffc107;stroke-width:0.9274925" />
  <rect
     x="430.41827"
     y="351.53168"
     width="23.660334"
     height="23.660334"
     id="rect222"
     style="opacity:0.4;fill:#ffc107;stroke-width:0.9274925" />
  <rect
     x="462.75064"
     y="351.53168"
     width="23.660334"
     height="23.660334"
     id="rect224"
     style="fill:#ffc107;stroke-width:0.9274925" />
  <rect
     x="495.09232"
     y="351.53168"
     width="23.660334"
     height="23.660334"
     id="rect226"
     style="opacity:0.2;fill:#ffc107;stroke-width:0.9274925" />
  <rect
     x="527.42474"
     y="351.53168"
     width="23.660334"
     height="23.660334"
     id="rect228"
     style="fill:#ffc107;stroke-width:0.9274925" />
  <rect
     x="559.76636"
     y="351.53168"
     width="23.660334"
     height="23.660334"
     id="rect230"
     style="fill:#ffc107;stroke-width:0.9274925" />
  <rect
     x="592.10803"
     y="351.53168"
     width="23.660334"
     height="23.660334"
     id="rect232"
     style="fill:#ffc107;stroke-width:0.9274925" />
  <rect
     x="624.44043"
     y="351.53168"
     width="23.660334"
     height="23.660334"
     id="rect234"
     style="opacity:0.2;fill:#ffc107;stroke-width:0.9274925" />
  <rect
     x="656.78204"
     y="351.53168"
     width="23.660334"
     height="23.660334"
     id="rect236"
     style="fill:#ffc107;stroke-width:0.9274925" />
  <rect
     x="689.12378"
     y="351.53168"
     width="23.660334"
     height="23.660334"
     id="rect238"
     style="opacity:0.2;fill:#ffc107;stroke-width:0.9274925" />
  <rect
     x="721.45618"
     y="351.53168"
     width="23.660334"
     height="23.660334"
     id="rect240"
     style="opacity:0.2;fill:#ffc107;stroke-width:0.9274925" />
  <rect
     x="753.79785"
     y="351.53168"
     width="23.660334"
     height="23.660334"
     id="rect242"
     style="opacity:0.2;fill:#ffc107;stroke-width:0.9274925" />
  <rect
     x="786.13019"
     y="351.53168"
     width="23.660334"
     height="23.660334"
     id="rect244"
     style="opacity:0.2;fill:#ffc107;stroke-width:0.9274925" />
  <rect
     x="818.47186"
     y="351.53168"
     width="23.660334"
     height="23.660334"
     id="rect246"
     style="opacity:0.2;fill:#ffc107;stroke-width:0.9274925" />
  <rect
     x="850.81354"
     y="351.53168"
     width="23.660334"
     height="23.660334"
     id="rect248"
     style="opacity:0.7;fill:#ffc107;stroke-width:0.9274925" />
  <rect
     x="883.14587"
     y="351.53168"
     width="23.660334"
     height="23.660334"
     id="rect250"
     style="opacity:0.2;fill:#ffc107;stroke-width:0.9274925" />
  <rect
     x="915.48761"
     y="351.53168"
     width="23.660334"
     height="23.660334"
     id="rect252"
     style="opacity:0.2;fill:#ffc107;stroke-width:0.9274925" />
  <rect
     x="947.82001"
     y="351.53168"
     width="23.660334"
     height="23.660334"
     id="rect254"
     style="fill:#ffc107;stroke-width:0.9274925" />
  <rect
     x="139.37112"
     y="381.49896"
     width="23.660334"
     height="23.660334"
     id="rect256"
     style="opacity:0.2;fill:#ffc107;stroke-width:0.9274925" />
  <rect
     x="171.71278"
     y="381.49896"
     width="23.660334"
     height="23.660334"
     id="rect258"
     style="opacity:0.2;fill:#ffc107;stroke-width:0.9274925" />
  <rect
     x="204.04518"
     y="381.49896"
     width="23.660334"
     height="23.660334"
     id="rect260"
     style="opacity:0.2;fill:#ffc107;stroke-width:0.9274925" />
  <rect
     x="236.38684"
     y="381.49896"
     width="23.660334"
     height="23.660334"
     id="rect262"
     style="opacity:0.4;fill:#ffc107;stroke-width:0.9274925" />
  <rect
     x="268.72852"
     y="381.49896"
     width="23.660334"
     height="23.660334"
     id="rect264"
     style="opacity:0.2;fill:#ffc107;stroke-width:0.9274925" />
  <rect
     x="301.06088"
     y="381.49896"
     width="23.660334"
     height="23.660334"
     id="rect266"
     style="opacity:0.2;fill:#ffc107;stroke-width:0.9274925" />
  <rect
     x="333.40256"
     y="381.49896"
     width="23.660334"
     height="23.660334"
     id="rect268"
     style="opacity:0.7;fill:#ffc107;stroke-width:0.9274925" />
  <rect
     x="365.73492"
     y="381.49896"
     width="23.660334"
     height="23.660334"
     id="rect270"
     style="opacity:0.2;fill:#ffc107;stroke-width:0.9274925" />
  <rect
     x="398.07663"
     y="381.49896"
     width="23.660334"
     height="23.660334"
     id="rect272"
     style="opacity:0.2;fill:#ffc107;stroke-width:0.9274925" />
  <rect
     x="430.41827"
     y="381.49896"
     width="23.660334"
     height="23.660334"
     id="rect274"
     style="opacity:0.2;fill:#ffc107;stroke-width:0.9274925" />
  <rect
     x="462.75064"
     y="381.49896"
     width="23.660334"
     height="23.660334"
     id="rect276"
     style="fill:#ffc107;stroke-width:0.9274925" />
  <rect
     x="495.09232"
     y="381.49896"
     width="23.660334"
     height="23.660334"
     id="rect278"
     style="opacity:0.2;fill:#ffc107;stroke-width:0.9274925" />
  <rect
     x="527.42474"
     y="381.49896"
     width="23.660334"
     height="23.660334"
     id="rect280"
     style="fill:#ffc107;stroke-width:0.9274925" />
  <rect
     x="559.76636"
     y="381.49896"
     width="23.660334"
     height="23.660334"
     id="rect282"
     style="fill:#ffc107;stroke-width:0.9274925" />
  <rect
     x="592.10803"
     y="381.49896"
     width="23.660334"
     height="23.660334"
     id="rect284"
     style="opacity:0.2;fill:#ffc107;stroke-width:0.9274925" />
  <rect
     x="624.44043"
     y="381.49896"
     width="23.660334"
     height="23.660334"
     id="rect286"
     style="opacity:0.2;fill:#ffc107;stroke-width:0.9274925" />
  <rect
     x="656.78204"
     y="381.49896"
     width="23.660334"
     height="23.660334"
     id="rect288"
     style="opacity:0.2;fill:#ffc107;stroke-width:0.9274925" />
  <rect
     x="689.12378"
     y="381.49896"
     width="23.660334"
     height="23.660334"
     id="rect290"
     style="opacity:0.2;fill:#ffc107;stroke-width:0.9274925" />
  <rect
     x="721.45618"
     y="381.49896"
     width="23.660334"
     height="23.660334"
     id="rect292"
     style="opacity:0.2;fill:#ffc107;stroke-width:0.9274925" />
  <rect
     x="753.79785"
     y="381.49896"
     width="23.660334"
     height="23.660334"
     id="rect294"
     style="opacity:0.2;fill:#ffc107;stroke-width:0.9274925" />
  <rect
     x="786.13019"
     y="381.49896"
     width="23.660334"
     height="23.660334"
     id="rect296"
     style="opacity:0.2;fill:#ffc107;stroke-width:0.9274925" />
  <rect
     x="818.47186"
     y="381.49896"
     width="23.660334"
     height="23.660334"
     id="rect298"
     style="opacity:0.2;fill:#ffc107;stroke-width:0.9274925" />
  <rect
     x="850.81354"
     y="381.49896"
     width="23.660334"
     height="23.660334"
     id="rect300"
     style="opacity:0.2;fill:#ffc107;stroke-width:0.9274925" />
  <rect
     x="883.14587"
     y="381.49896"
     width="23.660334"
     height="23.660334"
     id="rect302"
     style="opacity:0.2;fill:#ffc107;stroke-width:0.9274925" />
  <rect
     x="915.48761"
     y="381.49896"
     width="23.660334"
     height="23.660334"
     id="rect304"
     style="opacity:0.4;fill:#ffc107;stroke-width:0.9274925" />
  <rect
     x="947.82001"
     y="381.49896"
     width="23.660334"
     height="23.660334"
     id="rect306"
     style="fill:#ffc107;stroke-width:0.9274925" />
  <rect
     x="139.37112"
     y="411.47549"
     width="23.660334"
     height="23.660334"
     id="rect308"
     style="opacity:0.7;fill:#ffc107;stroke-width:0.9274925" />
  <rect
     x="171.71278"
     y="411.47549"
     width="23.660334"
     height="23.660334"
     id="rect310"
     style="opacity:0.7;fill:#ffc107;stroke-width:0.9274925" />
  <rect
     x="204.04518"
     y="411.47549"
     width="23.660334"
     height="23.660334"
     id="rect312"
     style="opacity:0.7;fill:#ffc107;stroke-width:0.9274925" />
  <rect
     x="236.38684"
     y="411.47549"
     width="23.660334"
     height="23.660334"
     id="rect314"
     style="opacity:0.7;fill:#ffc107;stroke-width:0.9274925" />
  <rect
     x="268.72852"
     y="411.47549"
     width="23.660334"
     height="23.660334"
     id="rect316"
     style="opacity:0.7;fill:#ffc107;stroke-width:0.9274925" />
  <rect
     x="301.06088"
     y="411.47549"
     width="23.660334"
     height="23.660334"
     id="rect318"
     style="opacity:0.2;fill:#ffc107;stroke-width:0.9274925" />
  <rect
     x="333.40256"
     y="411.47549"
     width="23.660334"
     height="23.660334"
     id="rect320"
     style="opacity:0.2;fill:#ffc107;stroke-width:0.9274925" />
  <rect
     x="365.73492"
     y="411.47549"
     width="23.660334"
     height="23.660334"
     id="rect322"
     style="opacity:0.2;fill:#ffc107;stroke-width:0.9274925" />
  <rect
     x="398.07663"
     y="411.47549"
     width="23.660334"
     height="23.660334"
     id="rect324"
     style="opacity:0.2;fill:#ffc107;stroke-width:0.9274925" />
  <rect
     x="430.41827"
     y="411.47549"
     width="23.660334"
     height="23.660334"
     id="rect326"
     style="opacity:0.2;fill:#ffc107;stroke-width:0.9274925" />
  <rect
     x="462.75064"
     y="411.47549"
     width="23.660334"
     height="23.660334"
     id="rect328"
     style="opacity:0.2;fill:#ffc107;stroke-width:0.9274925" />
  <rect
     x="495.09232"
     y="411.47549"
     width="23.660334"
     height="23.660334"
     id="rect330"
     style="fill:#ffc107;stroke-width:0.9274925" />
  <rect
     x="527.42474"
     y="411.47549"
     width="23.660334"
     height="23.660334"
     id="rect332"
     style="opacity:0.2;fill:#ffc107;stroke-width:0.9274925" />
  <rect
     x="559.76636"
     y="411.47549"
     width="23.660334"
     height="23.660334"
     id="rect334"
     style="opacity:0.2;fill:#ffc107;stroke-width:0.9274925" />
  <rect
     x="592.10803"
     y="411.47549"
     width="23.660334"
     height="23.660334"
     id="rect336"
     style="opacity:0.2;fill:#ffc107;stroke-width:0.9274925" />
  <rect
     x="624.44043"
     y="411.47549"
     width="23.660334"
     height="23.660334"
     id="rect338"
     style="fill:#ffc107;stroke-width:0.9274925" />
  <rect
     x="656.78204"
     y="411.47549"
     width="23.660334"
     height="23.660334"
     id="rect340"
     style="opacity:0.2;fill:#ffc107;stroke-width:0.9274925" />
  <rect
     x="689.12378"
     y="411.47549"
     width="23.660334"
     height="23.660334"
     id="rect342"
     style="opacity:0.2;fill:#ffc107;stroke-width:0.9274925" />
  <rect
     x="721.45618"
     y="411.47549"
     width="23.660334"
     height="23.660334"
     id="rect344"
     style="opacity:0.2;fill:#ffc107;stroke-width:0.9274925" />
  <rect
     x="753.79785"
     y="411.47549"
     width="23.660334"
     height="23.660334"
     id="rect346"
     style="opacity:0.2;fill:#ffc107;stroke-width:0.9274925" />
  <rect
     x="786.13019"
     y="411.47549"
     width="23.660334"
     height="23.660334"
     id="rect348"
     style="opacity:0.2;fill:#ffc107;stroke-width:0.9274925" />
  <rect
     x="818.47186"
     y="411.47549"
     width="23.660334"
     height="23.660334"
     id="rect350"
     style="opacity:0.2;fill:#ffc107;stroke-width:0.9274925" />
  <rect
     x="850.81354"
     y="411.47549"
     width="23.660334"
     height="23.660334"
     id="rect352"
     style="opacity:0.2;fill:#ffc107;stroke-width:0.9274925" />
  <rect
     x="883.14587"
     y="411.47549"
     width="23.660334"
     height="23.660334"
     id="rect354"
     style="opacity:0.2;fill:#ffc107;stroke-width:0.9274925" />
  <rect
     x="915.48761"
     y="411.47549"
     width="23.660334"
     height="23.660334"
     id="rect356"
     style="opacity:0.2;fill:#ffc107;stroke-width:0.9274925" />
  <rect
     x="947.82001"
     y="411.47549"
     width="23.660334"
     height="23.660334"
     id="rect358"
     style="fill:#ffc107;stroke-width:0.9274925" />
  <circle
     cx="722.73608"
     cy="466.17905"
     r="32.341663"
     id="circle360"
     style="fill:#767d9f;stroke-width:0.9274925" />
  <path
     d="m 721.05733,425.03547 q 4.84151,21.12828 8.21758,42.5719 c 0.67707,4.24792 1.27994,8.72771 -0.25969,12.74375 -1.28922,3.34825 -3.91402,5.96378 -5.97306,8.89465 -2.05903,2.93088 -3.61722,6.68723 -2.3651,10.04475 1.25211,3.35752 4.90643,5.19396 8.39381,6.14 9.97982,2.68973 20.61815,0.73272 30.5516,-2.17961 a 49.426076,49.426076 0 0 0 12.80867,-5.30526 c 4.21082,-2.67117 7.66109,-6.38114 10.83311,-10.20241 14.47816,-17.55744 23.95714,-38.63007 32.87961,-59.57285 a 36.283507,36.283507 0 0 1 -30.70927,-12.37275 c -3.65432,-4.29429 -6.33478,-10.27661 -4.27574,-15.52622 -6.03798,3.31115 -13.2075,3.53374 -19.70922,5.79683 a 70.01641,70.01641 0 0 0 -11.59366,5.70407 q -6.65939,3.8491 -13.24459,7.84659 c -5.01773,3.02363 -9.72012,5.71336 -15.55405,5.41656 z"
     id="path362"
     inkscape:connector-curvature="0"
     style="fill:#ae6e79;stroke-width:0.9274925" />
  <path
     d="m 788.69936,449.31722 c -5.66698,11.02789 -13.04055,21.62913 -23.56759,28.19577 -10.52704,6.56665 -24.69912,8.34744 -35.24471,1.85499 -5.19396,-3.17202 -9.12653,-7.99499 -13.66197,-12.0574 -4.53543,-4.06242 -10.20241,-7.54052 -16.29604,-7.01185 -6.71505,0.58432 -11.97393,5.82466 -16.47227,10.84239 -6.82634,7.62399 -13.42081,15.5726 -18.25305,24.5971 -9.27492,17.34411 -11.47308,37.6191 -11.06498,57.28194 0.40809,19.66284 3.25549,39.22366 3.32042,58.8865 0.0928,24.18901 -4.00677,48.18324 -8.15266,72.01052 38.11994,-4.69311 76.28626,5.56496 114.48968,9.45115 24.4487,2.5135 49.0829,2.45785 73.66145,2.39293 4.32212,0 8.92248,-0.1113 12.52115,-2.50423 a 16.880364,16.880364 0 0 0 5.18468,-6.15855 c 3.39463,-6.26058 4.75804,-13.40227 5.70408,-20.46049 2.40221,-17.8264 2.47641,-35.87541 2.54133,-53.86876 0.16695,-43.59215 0.32462,-87.34197 -5.21251,-130.59095 -1.36341,-10.63834 -3.1071,-21.33233 -7.18806,-31.28432 -4.08097,-9.952 -10.74037,-19.10635 -20.05239,-24.43943 -5.98233,-3.43172 -19.84834,-9.40477 -26.89728,-5.94523 -7.91152,3.85837 -11.56584,21.42508 -15.35928,28.80792 z"
     id="path364"
     inkscape:connector-curvature="0"
     style="fill:#767d9f;stroke-width:0.9274925" />
  <path
     d="m 791.51894,572.41403 c -1.43762,-26.89728 -7.29009,-55.60318 5.16613,-79.47683 3.06073,-5.86176 -7.92079,-13.17967 -4.52616,-18.85593 a 85.403511,85.403511 0 0 0 9.33057,-22.19489 c 0.7049,-2.68046 1.27067,-5.51858 0.60287,-8.20831 -1.23356,-4.90644 -6.08435,-7.82804 -10.20242,-10.81457 -4.54471,-3.30187 -6.88199,-13.36516 -8.34743,-18.80954 -1.46544,-5.44438 11.65858,1.11299 16.93601,-0.82547 7.3272,-2.68046 16.63922,-0.99242 23.94786,1.72513 4.08097,1.50254 8.51438,1.63239 12.86432,1.74369 8.44946,0.2226 16.92674,0.43592 25.31127,-0.60287 3.76562,-0.47302 7.54052,-1.18719 11.32469,-0.97387 9.65519,0.54722 18.049,7.15097 23.76236,14.96046 5.71335,7.80948 9.34912,16.90819 14.03296,25.36692 3.90474,7.04894 8.56075,13.70834 11.89045,21.0448 2.94943,6.49245 4.81369,13.46719 6.6594,20.40484 l 4.75803,17.79858 a 23.725259,23.725259 0 0 1 1.16865,7.89296 c -0.24115,2.8474 -1.50254,5.50003 -2.78248,8.03209 a 152.22007,152.22007 0 0 1 -17.31629,26.42426 c -10.00764,12.27072 -22.15779,23.33571 -28.10302,38.02719 -2.31873,5.72263 -3.60795,11.80698 -4.78586,17.87278 a 656.60905,656.60905 0 0 0 -10.10967,73.41104 161.5692,161.5692 0 0 0 -33.87203,-11.32469 164.73195,164.73195 0 0 0 -17.62236,-2.78248 c -5.18468,-0.53794 -11.8719,0.4823 -16.80616,-0.92749 -8.25468,-2.34655 -9.16363,-16.30532 -10.41574,-23.61396 -2.00338,-11.64003 -2.40221,-23.48411 -2.47641,-35.24471 -0.0928,-13.37445 0.32463,-26.72106 -0.38954,-40.04913 z"
     id="path366"
     inkscape:connector-curvature="0"
     style="fill:#e6e6e6;stroke-width:0.9274925" />
  <path
     d="m 610.24052,522.11611 c 3.90475,22.25982 8.20831,44.58457 16.69487,65.49952 -0.21332,0.20405 -0.42665,0.38955 -0.63997,0.57505 -0.75127,0.63997 -1.53036,1.24284 -2.34656,1.85498 -1.90136,1.33559 -3.98821,2.46713 -5.56495,4.21082 a 7.4199402,7.4199402 0 0 0 -1.39124,2.27235 5.082659,5.082659 0 0 0 0,4.1459 c -4.42414,1.95701 -9.56245,1.35414 -14.52453,1.16864 -4.27574,-0.15768 -8.42164,0 -11.85336,2.34655 -4.76731,3.28333 -6.20492,9.59028 -6.97474,15.32218 q -0.42665,3.13492 -0.73272,6.27912 -0.2968,2.92161 -0.4823,5.86176 a 174.93436,174.93436 0 0 0 -0.17622,19.47734 q 0.0742,1.78079 0.19477,3.56157 c -15.15522,-0.36172 -28.96559,-8.26396 -42.03396,-15.9436 -2.98652,-1.75296 -6.0658,-3.59867 -8.00426,-6.49244 a 14.654382,14.654382 0 0 1 -2.14251,-9.5439 c 0,-0.47302 0.0835,-0.92749 0.1484,-1.40979 a 38.565139,38.565139 0 0 1 2.12396,-8.05064 99.427198,99.427198 0 0 1 17.79858,-30.28263 c 3.32043,-3.87691 7.05822,-7.67036 8.60713,-12.53969 0.67707,-2.12396 0.9275,-4.37777 1.61384,-6.49245 3.07927,-9.16363 14.19064,-13.49502 17.99335,-22.38967 0.9275,-2.12396 1.35414,-4.45197 2.50423,-6.49245 a 16.351693,16.351693 0 0 1 3.94185,-4.40559 c 0.67707,-0.56577 1.38196,-1.11299 2.07758,-1.66021 q 9.77577,-7.66109 18.83737,-16.18475 1.68804,-1.58601 3.33898,-3.20912 a 55.167255,55.167255 0 0 0 0.99241,12.52115 z"
     id="path368"
     inkscape:connector-curvature="0"
     style="fill:#e6e6e6;stroke-width:0.9274925" />
  <path
     d="m 703.70395,456.28269 c -1.33559,1.40979 -2.78248,2.7361 -4.20155,4.05314 l -0.38027,0.34318 -1.50254,1.39123 a 36.172208,36.172208 0 0 0 -7.00256,8.15266 l -0.15768,0.2597 c -4.73021,8.46801 -2.97725,18.89302 -1.66021,28.51112 a 242.58567,242.58567 0 0 1 2.19816,36.17221 c -0.24115,16.69486 -2.20743,33.27843 -2.24453,49.95475 0,3.78417 0.0835,7.55906 0.25042,11.34323 0.26897,6.14928 0.73272,12.28928 1.28921,18.42928 0.60287,6.73359 1.32632,13.45791 2.00339,20.18223 0.53794,5.20324 1.04806,10.3972 1.47471,15.59115 0.21332,2.68973 0.41737,5.37018 0.58432,8.05991 0.19477,3.15348 0.35245,6.31623 0.4452,9.4697 v 0 c 0.0649,2.00339 0.10202,3.99749 0.10202,6.00088 0,1.14081 0,2.27236 0,3.4039 q 0,3.25549 -0.17622,6.49244 -0.1855,4.16444 -0.56577,8.34744 c -0.28753,3.0329 -0.79765,6.34405 -2.93088,8.47728 -0.12985,0.12985 -0.26897,0.25042 -0.4081,0.37099 l -3.00507,-0.37099 a 308.59531,308.59531 0 0 0 -62.42025,-1.11299 c 0.45447,-3.13493 0.87184,-6.26058 1.27994,-9.40478 0.1855,-1.48399 0.371,-2.97725 0.54722,-4.47051 q 0.30607,-2.55988 0.58432,-5.11976 c 0.21333,-1.85499 0.4081,-3.70997 0.5936,-5.56496 q 0.72344,-7.16951 1.27066,-14.3483 0.80692,-10.47139 1.22429,-20.97989 0.20405,-5.01773 0.31535,-10.04474 0.15767,-6.23275 0.1484,-12.47477 0,-6.0658 -0.10203,-12.15016 c 0,-1.33558 -0.0557,-2.67117 -0.16694,-3.99749 a 25.36692,25.36692 0 0 0 -0.49158,-3.55229 46.254052,46.254052 0 0 0 -2.78247,-7.86514 c -0.20405,-0.4823 -0.39882,-0.92749 -0.5936,-1.43761 -0.1113,-0.25043 -0.21332,-0.51013 -0.31535,-0.76055 5.34236,-4.75804 9.14508,-11.12991 12.7994,-17.39976 5.92668,-10.10039 11.99248,-20.64598 12.9849,-32.31384 0.99241,-11.66785 -4.80441,-24.77332 -15.95287,-28.33489 -3.03291,-0.9275 -6.24203,-1.18719 -9.36768,-1.73442 -2.94943,-0.51939 -9.0987,-1.69731 -12.51187,-3.81199 q -2.78248,2.85668 -5.56496,5.61133 a 20.543959,20.543959 0 0 1 2.01266,-8.07846 l 1.31704,0.0649 a 2.5135047,2.5135047 0 0 1 -0.1484,-0.9275 c 0,-0.99241 0.68635,-2.11468 2.15178,-3.35752 4.36849,-3.70997 11.24121,-4.53544 13.99587,-9.55317 1.15009,-2.08686 1.34486,-4.57254 2.27235,-6.76142 2.66191,-6.24203 10.30444,-8.54221 14.90481,-13.53212 4.60036,-4.98991 5.75045,-12.0574 9.4697,-17.62236 a 26.544836,26.544836 0 0 1 11.12991,-9.27492 c 0.37099,-0.17623 0.75127,-0.35245 1.13154,-0.51012 7.69818,-3.2926 16.84326,-4.04387 24.8197,-4.02532 3.09782,0 11.12991,0.0928 15.06248,1.66021 a 4.9342602,4.9342602 0 0 1 1.71586,1.04807 c 4.19226,4.56326 -2.32801,14.19991 -5.42583,17.50178 z"
     id="path370"
     inkscape:connector-curvature="0"
     style="fill:#e6e6e6;stroke-width:0.9274925" />
  <path
     d="m 611.62249,500.92291 a 56.465745,56.465745 0 0 1 43.351,4.51688 c 6.67794,3.70997 12.66955,8.88538 16.34242,15.56333 5.51858,10.01692 5.27743,22.09287 4.88788,33.52885 -0.19477,5.72263 -0.44519,11.64931 -2.96797,16.78762 -2.92161,5.94523 -8.43091,10.02619 -14.05152,13.36517 a 39.177284,39.177284 0 0 1 -11.4267,4.94353 c -6.23275,1.35414 -12.70665,0.20405 -18.98578,-0.92749 -6.82634,-1.26139 -14.15353,-2.78248 -18.89302,-7.86514 -2.78248,-2.94942 -4.30356,-6.77997 -5.8061,-10.52704 q -3.23695,-8.11556 -6.49245,-16.21257 c -3.75634,-9.37695 -5.02701,-17.17716 -0.0649,-26.31296 2.2538,-4.16444 5.00846,-8.05991 7.23444,-12.25218 1.11299,-2.13323 5.10121,-14.06078 6.87272,-14.608 z"
     id="path372"
     inkscape:connector-curvature="0"
     style="fill:#e6e6e6;stroke-width:0.9274925" />
  <path
     d="m 1001.429,661.25854 v 27.73202 a 155.1695,155.1695 0 0 1 -60.03655,11.87191 H 691.257 c -0.12985,0.12985 -0.26898,0.25042 -0.4081,0.371 l -3.00508,-0.371 H 242.89784 c -37.33158,0 -71.92705,-10.07257 -100.29904,-27.23118 v -42.34004 l 213.99107,-24.69912 h 0.16695 l 124.61789,10.55486 32.24892,2.78248 16.75051,1.41906 34.66967,2.94016 17.83568,1.51181 25.9698,2.20743 3.65432,0.30607 18.71679,1.58602 25.39475,2.08685 35.70846,3.02363 59.52647,5.05483 41.87629,3.5523 68.76429,5.83393 13.07765,1.10371 1.40979,0.12058 1.22429,0.10202 17.26991,1.46544 18.95795,1.61384 2.19815,0.1855 z"
     id="path374"
     inkscape:connector-curvature="0"
     style="fill:#504f60;stroke-width:0.9274925" />
  <polygon
     points="637,601.44 749.26,579.33 764,573.12 474.86,523.77 463.65,580.46 596.19,596.33 "
     id="polygon376"
     style="fill:#9c9ca1"
     transform="matrix(0.92749252,0,0,0.92749252,41.474286,128.67378)" />
  <path
     d="m 611.26077,683.87081 134.35656,-25.25563 a 4.6374626,4.6374626 0 0 1 5.50931,4.57254 v 0 a 4.6374626,4.6374626 0 0 1 -3.79345,4.57254 l -131.21236,24.56928 z"
     id="path378"
     inkscape:connector-curvature="0"
     style="fill:#9c9ca1;stroke-width:0.9274925" />
  <path
     d="m 669.5444,604.44962 c 4.18299,-0.38955 8.42163,-1.04807 12.18725,-2.90305 4.63746,-2.30946 8.24541,-6.2884 12.5397,-9.21928 9.44187,-6.49244 22.07432,-7.36429 32.89816,-3.63577 10.82383,3.72852 19.85761,11.71423 26.18311,21.24886 4.20154,6.35332 7.35502,14.4596 4.38704,21.47145 a 28.297797,28.297797 0 0 1 -3.82127,5.97305 l -7.73529,10.10967 a 26.897283,26.897283 0 0 1 -5.2496,5.64843 c -2.89378,2.10541 -6.49245,2.96797 -10.03547,3.48737 -9.41405,1.37269 -18.99505,0.5936 -28.4833,1.22429 -16.29604,1.08517 -32.21181,6.33477 -48.54496,6.15855 -9.38622,-0.10202 -18.65187,-1.99411 -27.82477,-3.88619 l -40.59635,-8.34744 c -7.06749,-1.44688 -15.0532,-3.56157 -18.3829,-9.97054 -1.49327,-2.8845 -1.77151,-6.22348 -1.94774,-9.4697 -0.48229,-8.94103 0,-18.88375 6.19565,-25.32982 5.82466,-6.04725 15.03466,-7.95789 21.99085,-12.4284 8.51438,-5.48148 11.32468,-3.70997 20.30281,0.4081 a 111.2991,111.2991 0 0 0 55.93708,9.46042 z"
     id="path380"
     inkscape:connector-curvature="0"
     style="fill:#ae6e79;stroke-width:0.9274925" />
  <path
     d="m 669.5444,604.44962 c 4.18299,-0.38955 8.42163,-1.04807 12.18725,-2.90305 4.63746,-2.30946 8.24541,-6.2884 12.5397,-9.21928 9.44187,-6.49244 22.07432,-7.36429 32.89816,-3.63577 10.82383,3.72852 19.85761,11.71423 26.18311,21.24886 4.20154,6.35332 7.35502,14.4596 4.38704,21.47145 a 28.297797,28.297797 0 0 1 -3.82127,5.97305 l -7.73529,10.10967 a 26.897283,26.897283 0 0 1 -5.2496,5.64843 c -2.89378,2.10541 -6.49245,2.96797 -10.03547,3.48737 -9.41405,1.37269 -18.99505,0.5936 -28.4833,1.22429 -16.29604,1.08517 -32.21181,6.33477 -48.54496,6.15855 -9.38622,-0.10202 -18.65187,-1.99411 -27.82477,-3.88619 l -40.59635,-8.34744 c -7.06749,-1.44688 -15.0532,-3.56157 -18.3829,-9.97054 -1.49327,-2.8845 -1.77151,-6.22348 -1.94774,-9.4697 -0.48229,-8.94103 0,-18.88375 6.19565,-25.32982 5.82466,-6.04725 15.03466,-7.95789 21.99085,-12.4284 8.51438,-5.48148 11.32468,-3.70997 20.30281,0.4081 a 111.2991,111.2991 0 0 0 55.93708,9.46042 z"
     id="path382"
     inkscape:connector-curvature="0"
     style="opacity:0.05;stroke-width:0.9274925" />
  <path
     d="m 832.56976,591.7337 c -11.38961,4.40559 -22.84414,8.82973 -34.7717,11.45453 -19.99674,4.40559 -40.92097,3.70997 -60.76003,8.74626 -10.48067,2.67117 -20.89641,6.97474 -31.6646,6.1029 -4.81368,-0.38955 -9.46042,-1.85499 -14.14426,-2.96798 -26.31296,-6.49245 -56.2246,-4.38704 -77.59402,12.30783 -7.30864,5.70407 -13.29097,12.81794 -18.7168,20.40483 a 13.63414,13.63414 0 0 0 5.48148,20.29354 80.339402,80.339402 0 0 0 26.32224,7.02112 c 12.17797,1.07589 24.4116,-0.64925 36.52465,-2.37438 17.97481,-2.55061 35.95889,-5.11049 53.88732,-7.97644 6.4368,-1.02952 12.87359,-2.09613 19.34749,-2.91233 46.58795,-5.88957 94.01992,1.27067 140.72844,-3.64504 4.72094,-0.50085 9.52535,-1.15009 13.81964,-3.16275 10.87021,-5.10121 16.24967,-18.54985 14.00514,-30.36611 -2.24454,-11.81625 -10.90732,-21.6384 -21.33233,-27.6671 -8.73698,-5.07338 -18.1603,-7.12314 -27.8897,-9.27492 -9.03378,-2.10541 -14.54308,0.67707 -23.24296,4.01604 z"
     id="path384"
     inkscape:connector-curvature="0"
     style="fill:#ae6e79;stroke-width:0.9274925" />
  <path
     d="m 932.48853,521.09587 c 5.1383,6.73359 6.23274,15.76737 5.67625,24.19828 -0.5565,8.4309 -2.55988,16.76906 -2.85668,25.23707 -0.40809,11.61221 2.39293,23.18731 1.91991,34.76242 -0.3339,8.09701 -2.2538,16.03634 -4.52616,23.80873 -2.68045,9.1729 -6.55737,19.03215 -15.02538,23.43774 -11.24121,5.85248 -34.81807,2.55988 -46.6436,7.14169 1.07589,-6.70577 11.38961,-16.41662 12.4655,-23.12239 0.74199,-4.63746 1.49326,-9.40477 0.69562,-14.05151 -1.02024,-5.92668 -4.49834,-11.18556 -8.62568,-15.56332 -6.56665,-6.96547 -15.13668,-12.20581 -24.55073,-13.91239 -9.41405,-1.70659 -32.46224,-0.30607 -39.99348,5.63915 -0.92749,-6.14 16.32387,-12.0574 22.38967,-13.38371 3.02363,-0.67707 6.49245,-0.2968 8.91321,-2.21671 4.63746,-3.63577 1.27066,-10.87949 1.49326,-16.69487 0.17622,-4.63746 2.8845,-8.88538 3.43172,-13.52284 0.9275,-7.41994 -3.91402,-14.979 -2.01266,-22.25982 0.7049,-2.68973 2.27236,-5.05483 3.35753,-7.61471 3.30187,-7.83731 1.85498,-16.77834 0.0928,-25.10722 -1.09445,-5.23106 -2.16106,-11.12991 0.75126,-15.59115 2.69901,-4.16445 10.3601,10.66616 15.26653,9.97982 16.2033,-2.27236 30.86695,-14.28339 43.95387,-4.45197 6.66867,5.00846 7.54052,10.20242 10.20242,17.35339 2.5877,6.80779 9.29348,10.29516 13.62487,15.93432 z"
     id="path386"
     inkscape:connector-curvature="0"
     style="opacity:0.1;stroke-width:0.9274925" />
  <path
     d="m 935.271,521.09587 c 5.13831,6.73359 6.23275,15.76737 5.67626,24.19828 -0.5565,8.4309 -2.55988,16.76906 -2.85668,25.23707 -0.4081,11.61221 2.39293,23.18731 1.91991,34.76242 -0.3339,8.09701 -2.25381,16.03634 -4.52616,23.80873 -2.68046,9.1729 -6.55738,19.03215 -15.02538,23.43774 -11.24121,5.85248 -34.81807,2.55988 -46.6436,7.14169 1.07589,-6.70577 11.38961,-16.41662 12.4655,-23.12239 0.74199,-4.63746 1.49326,-9.40477 0.69562,-14.05151 -1.02024,-5.92668 -4.49834,-11.18556 -8.62568,-15.56332 -6.56665,-6.96547 -15.13668,-12.20581 -24.55073,-13.91239 -9.41405,-1.70659 -32.46224,-0.30607 -39.99348,5.63915 -0.92749,-6.14 16.32387,-12.0574 22.38967,-13.38371 3.02363,-0.67707 6.49245,-0.2968 8.9132,-2.21671 4.63747,-3.63577 1.27067,-10.87949 1.49327,-16.69487 0.17622,-4.63746 2.8845,-8.88538 3.43172,-13.52284 0.92749,-7.41994 -3.91402,-14.979 -2.01266,-22.25982 0.7049,-2.68973 2.27236,-5.05483 3.35752,-7.61471 3.30188,-7.83731 1.85499,-16.77834 0.0928,-25.10722 -1.09444,-5.23106 -2.16105,-11.12991 0.75127,-15.59115 2.69901,-4.16445 7.97644,-5.74118 12.88287,-6.4368 a 63.459038,63.459038 0 0 1 46.37463,11.96465 c 6.66867,5.00846 7.54051,10.20242 10.20242,17.35339 2.5506,6.80779 9.25637,10.29516 13.58776,15.93432 z"
     id="path388"
     inkscape:connector-curvature="0"
     style="fill:#e6e6e6;stroke-width:0.9274925" />
  <path
     d="m 321.57703,477.15127 50.42777,186.37035 a 11.640031,11.640031 0 0 0 10.11894,8.54221 l 226.97597,21.80534 a 11.630756,11.630756 0 0 0 12.40985,-14.35758 L 566.28665,454.70595 a 11.630756,11.630756 0 0 0 -12.1687,-8.82045 l -222.21793,16.62067 a 11.630756,11.630756 0 0 0 -10.32299,14.6451 z"
     id="path390"
     inkscape:connector-curvature="0"
     style="fill:#cccccc;stroke-width:0.9274925" />
  <ellipse
     cx="771.51294"
     cy="488.24408"
     rx="24.949549"
     ry="25.274172"
     id="ellipse392"
     style="fill:#ffffff;stroke-width:0.9274925" />
  <path
     d="m 792.00123,442.13843 c 0,0 5.25889,15.63752 -10.25806,22.21345 l -1.98484,3.46882 9.72012,9.59027 c 0,0 11.98321,-21.861 10.68472,-29.62411 0,0 -1.85499,-7.88369 -8.16194,-5.64843 z"
     id="path394"
     inkscape:connector-curvature="0"
     style="fill:#ffffff;stroke-width:0.9274925" />
  <circle
     cx="774.37891"
     cy="489.45911"
     r="24.059156"
     id="circle396"
     style="fill:#ffc107;stroke-width:0.9274925" />
  <path
     d="m 800.28374,451.33916 -3.82127,-6.30695 -5.56495,-0.78837 c 1.18719,-20.76656 -4.20154,-26.95293 -4.20154,-26.95293 l -1.25212,-0.12058 -5.45365,-0.52867 -10.25807,-10.64761 v -3.02363 c 14.41323,1.71586 22.38039,8.56076 26.68396,16.58357 7.60544,14.07933 3.86764,31.78517 3.86764,31.78517 z"
     id="path398"
     inkscape:connector-curvature="0"
     style="fill:#ffc107;stroke-width:0.9274925" />
  <path
     d="m 785.49024,413.34906 v 3.82127 l -5.45366,-0.52867 -10.25807,-10.64761 c 0,0 15.8694,3.55229 15.71173,7.35501 z"
     stroke-miterlimit="10"
     id="path400"
     inkscape:connector-curvature="0"
     style="opacity:0.1;stroke:#4c4981;stroke-width:0.9274925;stroke-miterlimit:10" />
  <path
     d="m 800.28374,451.33916 -3.82127,-6.30695 v -25.44112 c 7.55907,14.04223 3.82127,31.74807 3.82127,31.74807 z"
     stroke-miterlimit="10"
     id="path402"
     inkscape:connector-curvature="0"
     style="opacity:0.1;stroke:#4c4981;stroke-width:0.9274925;stroke-miterlimit:10" />
  <ellipse
     cx="382.45551"
     cy="772.9978"
     rx="13.383718"
     ry="24.411602"
     transform="rotate(-30)"
     id="ellipse404"
     style="fill:#ffffff;stroke-width:0.9274925" />
  <path
     d="m 721.3263,476.16813 c 6.74287,11.67713 15.01611,19.47734 8.61641,23.18731 -6.3997,3.70997 -25.0423,1.85499 -31.78517,-9.83142 -6.74287,-11.6864 -0.62142,-27.82477 5.77828,-31.53474 6.3997,-3.70997 10.63834,6.47389 17.39048,18.17885 z"
     id="path406"
     inkscape:connector-curvature="0"
     style="fill:#ffc107;stroke-width:0.9274925" />
  <path
     d="m 781.36289,392.04456 c 0,37.31302 -25.53387,73.27191 -62.84689,73.27191 a 67.56783,67.56783 0 0 1 0,-135.13566 c 37.31302,0.0371 62.84689,24.54145 62.84689,61.86375 z"
     id="path408"
     inkscape:connector-curvature="0"
     style="opacity:0.1;stroke-width:0.9274925" />
  <circle
     cx="718.51599"
     cy="395.93076"
     r="67.567825"
     id="circle410"
     style="fill:#ae6e79;stroke-width:0.9274925" />
  <path
     d="m 712.58005,365.99129 c 8.04136,2.95871 12.7994,11.26904 20.01529,15.89723 10.20241,6.49244 23.48411,4.81368 35.13341,1.60456 6.49245,-1.77151 13.2817,-3.93257 19.67212,-1.96629 a 5.5649551,5.5649551 0 0 0 2.9958,0.42665 c 1.39124,-0.39882 2.07758,-1.93846 2.53206,-3.31115 7.90223,-23.55831 4.34994,-50.24227 -7.57762,-72.03834 -3.07927,-5.62061 -6.77069,-11.05571 -11.85335,-14.96046 -4.00677,-3.07 -8.71843,-5.08266 -13.46719,-6.79852 a 134.48642,134.48642 0 0 0 -26.78599,-6.61302 16.639216,16.639216 0 0 0 -4.88788,-0.15767 c -2.23526,0.36172 -4.23864,1.56746 -6.23275,2.64335 a 63.792936,63.792936 0 0 1 -27.69493,7.52197 c -12.9849,0.49157 -27.82478,-2.56916 -37.83242,5.75972 -12.0574,9.9891 -9.05233,29.47572 -16.87109,43.03566 -5.17541,8.96885 -15.15523,15.47985 -16.79689,25.69154 a 23.715984,23.715984 0 0 0 0.58432,9.33985 c 3.82127,15.71172 19.03215,27.88043 35.24472,28.16795 a 13.374442,13.374442 0 0 0 7.19734,-1.47472 16.277494,16.277494 0 0 0 3.79344,-3.60794 c 10.61979,-12.5768 22.76995,-36.54321 42.83161,-29.16037 z"
     id="path412"
     inkscape:connector-curvature="0"
     style="fill:#444053;stroke-width:0.9274925" />
  <path
     d="m 792.92873,371.80667 c -0.45448,1.37269 -1.14082,2.91233 -2.53206,3.31115 a 5.5649551,5.5649551 0 0 1 -2.9958,-0.42665 c -6.39042,-1.96628 -13.21677,0.19478 -19.66284,1.96629 -11.65858,3.20912 -24.9681,4.92498 -35.13342,-1.60456 -7.22516,-4.63747 -11.97393,-12.9849 -20.02456,-15.89723 -20.06166,-7.41994 -32.21182,16.58357 -42.85943,29.16037 a 16.277494,16.277494 0 0 1 -3.79345,3.60794 13.374442,13.374442 0 0 1 -7.19734,1.47472 c -16.15692,-0.28752 -31.37707,-12.45623 -35.24471,-28.16795 -0.21333,-0.92749 -0.39882,-1.85498 -0.53795,-2.78248 0,0.0835 0,0.15768 -0.0464,0.24115 a 23.715984,23.715984 0 0 0 0.58432,9.33985 c 3.82127,15.71172 19.04142,27.88043 35.24471,28.16795 a 13.374442,13.374442 0 0 0 7.19734,-1.47471 16.277494,16.277494 0 0 0 3.79345,-3.60795 c 10.64761,-12.5768 22.79777,-36.54321 42.85943,-29.16037 8.05063,2.95871 12.7994,11.26904 20.02456,15.89723 10.20242,6.49244 23.47484,4.81368 35.13342,1.60456 6.49245,-1.77151 13.27242,-3.93257 19.66284,-1.96629 a 5.5649551,5.5649551 0 0 0 2.9958,0.42665 c 1.39124,-0.39882 2.07758,-1.93846 2.53206,-3.31115 a 83.7433,83.7433 0 0 0 4.15516,-29.92091 82.361336,82.361336 0 0 1 -4.15516,23.12239 z"
     id="path414"
     inkscape:connector-curvature="0"
     style="opacity:0.1;stroke-width:0.9274925" />
</svg>
