<?xml version="1.0" encoding="UTF-8" standalone="no"?>
<svg
   xmlns:dc="http://purl.org/dc/elements/1.1/"
   xmlns:cc="http://creativecommons.org/ns#"
   xmlns:rdf="http://www.w3.org/1999/02/22-rdf-syntax-ns#"
   xmlns:svg="http://www.w3.org/2000/svg"
   xmlns="http://www.w3.org/2000/svg"
   xmlns:sodipodi="http://sodipodi.sourceforge.net/DTD/sodipodi-0.dtd"
   xmlns:inkscape="http://www.inkscape.org/namespaces/inkscape"
   id="f3f7ec43-b381-4c0f-aa43-60e3db23781f"
   data-name="Layer 1"
   width="840.54063"
   height="737.8691"
   viewBox="0 0 840.54063 737.8691"
   version="1.1"
   sodipodi:docname="list.svg"
   inkscape:version="0.92.3 (2405546, 2018-03-11)">
  <metadata
     id="metadata77">
    <rdf:RDF>
      <cc:Work
         rdf:about="">
        <dc:format>image/svg+xml</dc:format>
        <dc:type
           rdf:resource="http://purl.org/dc/dcmitype/StillImage" />
        <dc:title>selection</dc:title>
      </cc:Work>
    </rdf:RDF>
  </metadata>
  <defs
     id="defs75" />
  <sodipodi:namedview
     pagecolor="#ffffff"
     bordercolor="#666666"
     borderopacity="1"
     objecttolerance="10"
     gridtolerance="10"
     guidetolerance="10"
     inkscape:pageopacity="0"
     inkscape:pageshadow="2"
     inkscape:window-width="1920"
     inkscape:window-height="1010"
     id="namedview73"
     showgrid="false"
     inkscape:zoom="0.78102206"
     inkscape:cx="559.47581"
     inkscape:cy="231.11736"
     inkscape:window-x="0"
     inkscape:window-y="0"
     inkscape:window-maximized="1"
     inkscape:current-layer="f3f7ec43-b381-4c0f-aa43-60e3db23781f" />
  <title
     id="title2">selection</title>
  <path
     style="fill:#3f3d56;stroke-width:0.8659519"
     inkscape:connector-curvature="0"
     d="m 530.82913,688.41413 q -36.67463,-6.2133 -70.54036,-10.67199 l 8.92527,-17.30487 c -3.00962,-1.0453 -16.23226,8.86468 -16.23226,8.86468 l 11.71297,-50.23186 c -15.13648,1.82543 -22.83243,53.1152 -22.83243,53.1152 l -16.91138,-17.34074 8.18734,19.49553 C 364.03883,666.20257 304.3623,663.18532 254.16731,663.07657 l 7.63915,-14.81116 c -3.00963,-1.0453 -16.23227,8.86468 -16.23227,8.86468 l 11.71298,-50.23186 c -15.13649,1.82543 -22.83243,53.1152 -22.83243,53.1152 l -16.91139,-17.34074 8.6717,20.64897 a 1005.3278,1005.3278 0 0 0 -102.88288,6.98844 c 7.72659,-23.07309 33.97454,-45.01741 33.97454,-45.01741 -20.0454,5.96181 -30.56031,15.9521 -36.05465,25.26595 a 404.57061,404.57061 0 0 1 23.38416,-139.7844 c 0,0 -41.4332,90.16226 -36.14635,150.68295 l 0.63234,10.74673 c -35.125989,5.02958 -52.785753,10.2624 -52.785753,10.2624 z"
     id="path4" />
  <path
     style="fill:#3f3d56;stroke-width:0.8659519"
     inkscape:connector-curvature="0"
     d="m 354.83582,569.02573 -4.3e-4,-1.73191 c 3.44352,-8.6e-4 6.93904,-0.0719 10.39056,-0.20972 l 0.0694,1.73022 c -3.47434,0.13953 -6.99312,0.21054 -10.45947,0.21141 z m -10.45654,-0.20043 c -3.46207,-0.1353 -6.97497,-0.34248 -10.44047,-0.61563 l 0.13615,-1.72683 c 3.44309,0.2723 6.93269,0.47779 10.37197,0.61223 z m 31.35651,-0.63846 -0.13784,-1.72683 c 3.43675,-0.27484 6.91493,-0.62409 10.3373,-1.03762 l 0.20803,1.72007 c -3.44562,0.41602 -6.94707,0.76697 -10.40749,1.04434 z m -52.20573,-1.0097 c -3.45325,-0.41352 -6.93819,-0.90146 -10.35888,-1.4503 l 0.27485,-1.70992 c 3.39742,0.54545 6.85953,1.03001 10.28952,1.44016 z m 72.96954,-1.49681 -0.27652,-1.70992 c 3.39658,-0.54883 6.83543,-1.17715 10.22102,-1.86552 l 0.34503,1.6964 c -3.408,0.69422 -6.87012,1.32592 -10.28953,1.87899 z m -93.62005,-1.8207 c -3.40838,-0.69006 -6.84263,-1.45875 -10.20834,-2.28242 l 0.41184,-1.68286 c 3.3433,0.81944 6.75467,1.58223 10.13984,2.2672 z m 114.1158,-2.35262 -0.41437,-1.68115 c 3.35345,-0.82537 6.73018,-1.72937 10.03667,-2.6875 l 0.48203,1.66425 c -3.32935,0.964 -6.72891,1.87392 -10.10433,2.70435 z m -134.43184,-2.62406 c -3.33949,-0.96405 -6.70056,-2.00759 -9.98974,-3.10184 l 0.54714,-1.64396 c 3.26719,1.08751 6.60584,2.12429 9.92294,3.08157 z m 154.52168,-3.19489 -0.54884,-1.64227 c 3.26931,-1.09259 6.56145,-2.2672 9.78594,-3.49256 l 0.61564,1.61859 c -3.24648,1.23376 -6.56145,2.41684 -9.85274,3.51619 z m -174.39418,-3.42237 c -3.24905,-1.23128 -6.5217,-2.54712 -9.72758,-3.91286 l 0.67863,-1.59321 c 3.18433,1.35644 6.43545,2.66382 9.66289,3.88579 z m 193.92122,-3.99404 -0.6799,-1.59321 c 3.16613,-1.3522 6.34495,-2.7856 9.44766,-4.26127 l 0.74418,1.56447 c -3.12386,1.48492 -6.32466,2.92846 -9.51194,4.28996 z m -213.20767,-4.22152 c -3.14585,-1.49342 -6.29973,-3.06973 -9.37368,-4.68577 l 0.8059,-1.53233 c 3.05325,1.60421 6.18556,3.17036 9.31026,4.65362 z m 232.05481,-4.74074 -0.80676,-1.53233 c 3.05028,-1.60505 6.10564,-3.29214 9.08066,-5.01305 l 0.86764,1.4985 c -2.99531,1.7327 -6.07096,3.43078 -9.14154,5.04682 z M 224.85722,534.3048 c -3.01815,-1.74459 -6.03249,-3.56952 -8.95973,-5.42404 l 0.92684,-1.46299 c 2.90736,1.84188 5.90183,3.65493 8.89969,5.38852 z m 268.67803,-5.45449 -0.92684,-1.46298 c 2.90314,-1.83928 5.81473,-3.76655 8.6536,-5.72933 l 0.98434,1.4241 c -2.85747,1.97624 -5.7885,3.91702 -8.71109,5.76816 z m -286.36963,-5.74798 c -2.86381,-1.97883 -5.72048,-4.03885 -8.4908,-6.12339 l 1.041,-1.38349 c 2.75219,2.07016 5.58979,4.11665 8.43415,6.0828 z m 303.55674,-6.1344 -1.04185,-1.3835 c 2.74584,-2.06508 5.49507,-4.22065 8.17158,-6.40753 l 1.09596,1.34121 c -2.69423,2.20126 -5.46206,4.37122 -8.22567,6.44984 z M 190.43812,510.5198 c -2.68878,-2.19701 -5.36991,-4.47859 -7.96904,-6.78213 l 1.14841,-1.29555 c 2.58221,2.2875 5.2456,4.5547 7.9166,6.7365 z m 336.47264,-6.77793 -1.14841,-1.29555 c 2.5801,-2.28665 5.1492,-4.65702 7.63543,-7.04432 l 1.19914,1.24988 c -2.50227,2.40254 -5.08828,4.78813 -7.68614,7.09 z m -352.13163,-7.0976 c -2.49806,-2.39997 -4.98726,-4.88789 -7.39782,-7.39441 l 1.24819,-1.20083 c 2.39489,2.49047 4.86759,4.96231 7.34959,7.34536 z m 367.21643,-7.38765 -1.24819,-1.20083 c 2.38729,-2.48284 4.75935,-5.0511 7.05108,-7.63458 l 1.29554,1.15009 c -2.30691,2.59957 -4.69504,5.18558 -7.09839,7.68534 z m -381.70932,-7.6887 c -2.30906,-2.60293 -4.59022,-5.28113 -6.78089,-7.96017 l 1.34122,-1.09596 c 2.17544,2.66128 4.4418,5.32171 6.73522,7.90603 z m 395.59415,-7.96186 -1.34121,-1.09596 c 2.18855,-2.67566 4.34836,-5.42742 6.42022,-8.17835 l 1.38349,1.04185 c -2.08538,2.76955 -4.26038,5.53907 -6.46247,8.23248 z m -408.82993,-8.21978 c -2.08708,-2.77121 -4.14583,-5.62107 -6.11875,-8.47178 l 1.42409,-0.98603 c 1.9598,2.8321 4.0046,5.66333 6.07811,8.41597 z m 421.42091,-8.50053 -1.4241,-0.98434 c 1.967,-2.84479 3.90017,-5.7623 5.74455,-8.67136 l 1.46299,0.92684 c -1.85703,2.92852 -3.80288,5.86549 -5.78341,8.72888 z m -433.3125,-8.6798 c -1.85579,-2.92597 -3.67817,-5.93058 -5.41685,-8.93097 l 1.49851,-0.86764 c 1.72683,2.98009 3.53741,5.9644 5.38048,8.87093 z m 444.52592,-9.00538 -1.49849,-0.86769 c 1.73363,-2.99619 3.42575,-6.06166 5.02996,-9.11025 l 1.53233,0.80675 c -1.61436,3.06893 -3.31836,6.15473 -5.0638,9.17119 z m -454.99387,-9.06629 c -1.61351,-3.06381 -3.18728,-6.20373 -4.67732,-9.33266 l 1.56361,-0.74418 c 1.48032,3.10779 3.04352,6.22657 4.64604,9.27009 z m 464.74852,-9.47555 -1.56447,-0.74419 c 1.48244,-3.11877 2.92259,-6.31197 4.27903,-9.49164 l 1.59321,0.67991 c -1.36574,3.20079 -2.81518,6.41597 -4.30777,9.55592 z m -473.72135,-9.36566 c -1.36405,-3.18982 -2.67819,-6.44391 -3.90651,-9.67263 l 1.61858,-0.61563 c 1.22029,3.20589 2.52555,6.43882 3.88033,9.60666 z m 481.94789,-9.91701 -1.61942,-0.61396 c 1.22792,-3.23971 2.40504,-6.54199 3.49678,-9.81384 l 1.64227,0.54799 c -1.09851,3.29468 -2.28327,6.61811 -3.51963,9.87981 z m -489.37572,-9.60582 c -1.10273,-3.29213 -2.15219,-6.65193 -3.11916,-9.98466 l 1.66341,-0.48202 c 0.96066,3.3099 2.00295,6.64686 3.09807,9.91701 z m 496.00398,-10.26372 -1.66425,-0.48033 c 0.95559,-3.30483 1.8579,-6.68153 2.68242,-10.03795 l 1.68116,0.41268 c -0.82959,3.37925 -1.73782,6.77963 -2.69933,10.1056 z m -501.83433,-9.82399 c -0.83212,-3.37248 -1.60547,-6.805 -2.29976,-10.20368 l 1.69727,-0.34673 c 0.68921,3.37586 1.45749,6.78639 2.2837,10.13603 z m 506.82201,-10.48699 -1.69808,-0.34503 c 0.68497,-3.37332 1.31077,-6.81261 1.86045,-10.22144 l 1.70991,0.27568 c -0.55306,3.43168 -1.18308,6.8938 -1.87228,10.29079 z M 98.275581,351.18974 c -0.55517,-3.41898 -1.04904,-6.90309 -1.467632,-10.35592 l 1.719218,-0.20803 c 0.416063,3.42998 0.906539,6.89038 1.458332,10.28656 z m 514.334839,-10.64514 -1.72006,-0.20634 c 0.41183,-3.42831 0.75939,-6.90648 1.03169,-10.33774 l 1.72683,0.137 c -0.27483,3.45454 -0.62409,6.95598 -1.03846,10.4071 z M 95.75806,330.42804 c -0.279486,-3.45916 -0.492588,-6.97202 -0.633392,-10.44131 l 1.730215,-0.0702 c 0.139956,3.44604 0.351793,6.93565 0.629167,10.37197 z m 518.5132,-10.73011 -1.73017,-0.0685 c 0.1353,-3.45112 0.20465,-6.94622 0.20465,-10.38846 l -8.7e-4,-0.57378 h 1.7319 l 8.7e-4,0.56997 c -10e-6,3.46846 -0.0694,6.98639 -0.20638,10.46077 z M 96.637945,309.52807 h -1.731904 l 4.25e-4,-0.29091 c 0,-3.37839 0.06555,-6.79992 0.195341,-10.16521 l 1.730215,0.0668 c -0.128542,3.34331 -0.193652,6.742 -0.193652,10.1022 z m 515.878585,-11.2468 c -0.14288,-3.43886 -0.35772,-6.92848 -0.64017,-10.37113 l 1.72683,-0.14122 c 0.2833,3.46592 0.49979,6.97835 0.64354,10.44047 z m -515.077718,-9.51491 -1.726829,-0.1353 c 0.272298,-3.46804 0.618177,-6.96989 1.027469,-10.40918 l 1.720066,0.20464 c -0.406763,3.41646 -0.750105,6.89548 -1.020714,10.33984 z M 610.82273,277.57368 c -0.41776,-3.41561 -0.91162,-6.87603 -1.46975,-10.28491 l 1.70992,-0.27949 c 0.56067,3.43167 1.05875,6.91535 1.47818,10.35464 z m -510.928944,-9.4371 -1.709917,-0.27398 c 0.548831,-3.42917 1.175044,-6.89253 1.862131,-10.29292 l 1.69727,0.3425 c -0.68209,3.37797 -1.30407,6.81768 -1.849527,10.2244 z M 607.46889,257.07075 c -0.69513,-3.38432 -1.46721,-6.79315 -2.29511,-10.13308 l 1.68116,-0.4169 c 0.83382,3.36233 1.61098,6.79485 2.31036,10.20157 z m -503.46483,-9.29926 -1.68244,-0.41099 c 0.82368,-3.37078 1.72853,-6.77201 2.68919,-10.10981 l 1.66425,0.47906 c -0.95432,3.3154 -1.85283,6.69379 -2.671,10.04174 z m 498.46609,-10.86583 c -0.96404,-3.30779 -2.00927,-6.64348 -3.10863,-9.91405 l 1.64227,-0.55137 c 1.10612,3.29256 2.15896,6.65066 3.12893,9.98085 z m -492.71943,-9.10011 -1.64354,-0.5463 c 1.09597,-3.29763 2.2765,-6.62317 3.50905,-9.88402 l 1.62028,0.61223 c -1.22452,3.2393 -2.39744,6.54244 -3.48579,9.81809 z M 595.85205,217.2116 c -1.23043,-3.22153 -2.5395,-6.45237 -3.89086,-9.60328 l 1.59152,-0.68244 c 1.36066,3.17205 2.67904,6.42445 3.91793,9.66754 z m -478.7344,-8.88954 -1.59406,-0.67822 c 1.36108,-3.19954 2.80715,-6.41642 4.29762,-9.56011 l 1.56489,0.74164 c -1.48072,3.12298 -2.91668,6.31829 -4.26845,9.49669 z m 470.56621,-10.15549 c -1.48243,-3.10444 -3.04859,-6.22149 -4.65536,-9.26459 l 1.53064,-0.80886 c 1.61859,3.06381 3.19574,6.20161 4.68748,9.32758 z m -461.64835,-8.65487 -1.53401,-0.80422 c 1.61435,-3.07692 3.31497,-6.16441 5.05406,-9.17705 l 1.50019,0.86595 c -1.72767,2.99239 -3.41687,6.05954 -5.02024,9.11532 z m 451.96474,-9.68191 c -1.73191,-2.98136 -3.54499,-5.964 -5.39021,-8.86586 l 1.46129,-0.92938 c 1.85791,2.92132 3.68283,5.92424 5.42657,8.92506 z m -441.56148,-8.33606 -1.46383,-0.92599 c 1.85791,-2.93739 3.8008,-5.87646 5.77417,-8.7352 l 1.42493,0.98392 c -1.96025,2.8397 -3.88962,5.75891 -5.73527,8.67727 z m 430.42672,-9.17452 c -1.96445,-2.83084 -4.01264,-5.6604 -6.08703,-8.40878 l 1.3818,-1.04354 c 2.08878,2.76698 4.15051,5.61516 6.12763,8.46544 z m -418.6129,-7.94069 -1.38433,-1.04017 c 2.08707,-2.77797 4.2583,-5.55004 6.4532,-8.24007 l 1.34205,1.09513 c -2.18053,2.67183 -4.33737,5.42571 -6.41092,8.18511 z m 406.10481,-8.62866 c -2.18433,-2.66509 -4.45408,-5.32256 -6.74411,-7.89843 l 1.29385,-1.15093 c 2.30611,2.5932 4.59022,5.26845 6.78977,7.9517 z m -392.96118,-7.47687 -1.29639,-1.14755 c 2.29934,-2.59786 4.68451,-5.18641 7.08955,-7.69379 l 1.24988,1.19915 c -2.38899,2.49043 -4.75851,5.06208 -7.04306,7.64217 z m 379.16093,-8.04643 c -2.39659,-2.48665 -4.87185,-4.95512 -7.35806,-7.33733 l 1.1983,-1.25073 c 2.5023,2.39828 4.99444,4.88324 7.40626,7.38639 z m -364.77674,-6.94917 -1.20084,-1.2482 c 2.49892,-2.40461 5.08282,-4.79275 7.67899,-7.09885 l 1.15009,1.2947 c -2.57922,2.29087 -5.14584,4.66378 -7.62826,7.05234 z m 349.77311,-7.42698 c -2.58771,-2.28792 -5.25406,-4.55174 -7.9238,-6.72804 l 1.09428,-1.34248 c 2.68749,2.1911 5.37161,4.46972 7.97623,6.77328 z m -334.24223,-6.36526 -1.09766,-1.33952 c 2.68704,-2.20082 5.45237,-4.37373 8.21851,-6.45913 l 1.04269,1.38264 c -2.74796,2.07145 -5.49465,4.23041 -8.16354,6.41601 z m 318.12821,-6.76906 c -2.76276,-2.07354 -5.60331,-4.117077 -8.44049,-6.07392 l 0.98265,-1.425782 c 2.85663,1.969963 5.7158,4.027015 8.49801,6.114482 z m -301.55125,-5.731012 -0.98688,-1.423235 c 2.85493,-1.978415 5.78386,-3.922156 8.7056,-5.777528 l 0.92854,1.462143 c -2.90228,1.842685 -5.81176,3.773316 -8.64724,5.73862 z m 284.43014,-6.074341 c -2.92005,-1.844382 -5.91619,-3.653659 -8.90646,-5.377561 l 0.86595,-1.500193 c 3.00885,1.73529 6.0253,3.556829 8.96565,5.413473 z M 225.40394,85.861744 224.53502,84.36324 c 2.99446,-1.736554 6.06843,-3.438011 9.13562,-5.05618 l 0.80845,1.531487 c -3.04733,1.607588 -6.10057,3.297632 -9.07517,5.023197 z m 248.89097,-5.344127 c -3.05873,-1.602513 -6.19273,-3.164864 -9.31574,-4.643494 l 0.74079,-1.565312 c 3.14415,1.488355 6.30014,3.061279 9.37833,4.67479 z m -230.54912,-4.32976 -0.74544,-1.563614 c 3.12301,-1.488779 6.3217,-2.935698 9.50771,-4.300586 l 0.6816,1.591949 c -3.16446,1.355587 -6.34202,2.792781 -9.44388,4.272251 z m 211.73414,-4.57711 c -3.18305,-1.35175 -6.43545,-2.655363 -9.66754,-3.875645 l 0.61223,-1.620274 c 3.25324,1.228318 6.52847,2.541196 9.73181,3.901858 z m -192.68444,-3.580936 -0.61691,-1.618585 c 3.24055,-1.235497 6.55383,-2.421955 9.84766,-3.526806 l 0.55053,1.642261 c -3.27146,1.097239 -6.56233,2.276085 -9.78132,3.50313 z m 173.19629,-3.775429 c -3.27269,-1.085401 -6.61218,-2.118369 -9.92631,-3.070154 l 0.47865,-1.664247 c 3.3361,0.958124 6.69759,1.997855 9.99227,3.090443 z M 282.49332,61.422278 282.0096,59.759719 c 3.33062,-0.969121 6.72931,-1.883272 10.10133,-2.717512 l 0.41606,1.681159 c -3.3496,0.828741 -6.72546,1.736978 -10.03367,2.698912 z m 133.52951,-2.902714 c -3.34373,-0.815632 -6.75637,-1.574613 -10.14238,-2.255805 l 0.34165,-1.69808 c 3.40884,0.685834 6.84432,1.450305 10.21088,2.271011 z m -113.36188,-2.084961 -0.34756,-1.6964 c 3.39531,-0.695126 6.8566,-1.331063 10.28782,-1.89046 l 0.27907,1.709069 c -3.40884,0.556028 -6.84685,1.187731 -10.21933,1.877791 z m 92.99469,-2.014352 c -3.40588,-0.542951 -6.86842,-1.024092 -10.29163,-1.429167 l 0.2038,-1.720057 c 3.44605,0.408028 6.93184,0.892164 10.36014,1.439307 z M 323.166,53.09299 322.95628,51.373772 c 3.44519,-0.41945 6.94621,-0.775027 10.40579,-1.055803 l 0.14038,1.72598 c -3.43674,0.279538 -6.9145,0.632137 -10.33645,1.049041 z m 51.85817,-1.116689 c -3.43337,-0.267648 -6.92339,-0.469761 -10.37282,-0.600416 l 0.066,-1.731038 c 3.47227,0.131919 6.98513,0.335297 10.44132,0.604642 z M 343.874,51.409285 343.803,49.679113 c 3.46295,-0.142882 6.98131,-0.21822 10.45739,-0.2241 l 0.003,1.731904 c -3.45283,0.0059 -6.94836,0.08072 -10.38891,0.222368 z"
     id="path6" />
  <path
     style="fill:#a0616a;stroke-width:0.8659519"
     inkscape:connector-curvature="0"
     d="m 273.42522,407.65862 c 0,0 -7.04415,30.18925 -1.0063,30.18925 6.03785,0 18.11354,-14.08832 18.11354,-14.08832 v -8.05046 z"
     id="path8" />
  <polygon
     style="fill:#d0cde1"
     points="267.544,382.858 246.627,415.396 261.734,415.396 "
     id="polygon10"
     transform="matrix(0.8659519,0,0,0.8659519,56.33644,49.454978)" />
  <rect
     style="fill:#a0616a;stroke-width:0.8659519"
     x="276.9473"
     y="626.5307"
     width="24.151398"
     height="20.126169"
     id="rect12" />
  <polygon
     style="fill:#a0616a"
     points="372.132,659.434 344.242,662.92 350.052,689.648 379.104,682.675 "
     id="polygon14"
     transform="matrix(0.8659519,0,0,0.8659519,56.33644,49.454978)" />
  <path
     style="fill:#374845;stroke-width:0.8659519"
     inkscape:connector-curvature="0"
     d="m 278.95996,415.20594 c 0,0 -8.05051,4.02523 -9.05682,22.13881 -1.0063,18.11359 3.01893,65.41004 3.01893,65.41004 0,0 -4.02523,21.13248 0,40.25233 4.02523,19.11986 -4.02523,88.55514 1.0063,88.55514 5.03154,0 31.19557,3.01892 32.20187,0 1.00631,-3.01893 2.01262,-48.3028 2.01262,-48.3028 0,0 8.05047,-23.1451 0,-37.23341 0,0 18.11355,15.09462 18.11355,19.11986 0,4.02524 19.11985,66.41635 28.17663,67.42265 9.05677,1.00631 34.21449,-1.0063 29.18294,-10.06308 -5.03154,-9.05677 -17.10724,-50.31542 -17.10724,-50.31542 0,0 -9.05678,-30.18924 -25.15771,-43.27125 l 8.05047,-64.40373 c 0,0 17.10724,-43.27126 7.04416,-49.30911 -10.06308,-6.03785 -77.4857,-3e-5 -77.4857,-3e-5 z"
     id="path16" />
  <circle
     style="fill:#a0616a;stroke-width:0.8659519"
     cx="309.14917"
     cy="225.01367"
     r="26.164019"
     id="circle18" />
  <path
     style="fill:#a0616a;stroke-width:0.8659519"
     inkscape:connector-curvature="0"
     d="m 296.06716,241.1146 c 0,0 10.06308,33.20817 7.04416,37.23341 -3.01893,4.02524 32.20186,-22.13875 32.20186,-22.13875 0,0 -13.082,-9.05677 -8.05047,-22.13877 z"
     id="path20" />
  <path
     style="fill:#37abc8;stroke-width:0.8659519"
     inkscape:connector-curvature="0"
     d="m 338.33211,253.1903 c 0,0 -12.0757,4.02524 -18.11355,11.06939 -6.03785,7.04416 -20.12617,8.05047 -20.12617,8.05047 0,0 -12.45412,7.01387 -17.10724,19.11985 -4.95914,12.90216 -2.07669,31.06741 0,35.2208 4.02524,8.05046 4.02524,28.17662 4.02524,28.17662 l -5.03155,46.29023 c 0,0 -18.11355,17.10724 -4.02523,19.11985 14.08832,2.01261 39.24603,-1.00631 54.34065,0 15.09462,1.0063 32.20187,3.01892 27.17032,-7.04416 -5.03154,-10.06308 -11.06939,-17.10724 -5.03154,-37.23341 4.72481,-15.74937 4.51987,-74.63412 4.20729,-99.50036 a 20.019197,20.019197 0 0 0 -9.72232,-16.91771 z"
     id="path22" />
  <path
     style="fill:#a0616a;stroke-width:0.8659519"
     inkscape:connector-curvature="0"
     d="m 299.08609,407.15547 c 0,0 -4.57837,10.08011 -5.03155,16.10093 -3.52208,46.79334 22.13879,0 22.13879,0 v -8.05046 z"
     id="path24" />
  <path
     style="fill:#2f2e41;stroke-width:0.8659519"
     inkscape:connector-curvature="0"
     d="m 369.52766,638.60638 c 0,0 -15.09462,-11.06939 -15.09462,-5.03154 0,6.03785 -17.10724,30.18925 -17.10724,30.18925 0,0 -28.17663,20.12617 -5.03154,20.12617 23.14509,0 33.20817,-4.02524 33.20817,-4.02524 l 24.1514,-16.10093 c 0,0 6.03785,-7.04416 4.02524,-15.09463 -2.01261,-8.05047 -9.05678,-19.11986 -9.05678,-19.11986 0,0 -8.0505,11.06939 -15.09463,9.05678 z"
     id="path26" />
  <path
     style="fill:#2f2e41;stroke-width:0.8659519"
     inkscape:connector-curvature="0"
     d="m 280.97254,641.6253 c 0,0 -2.01262,-10.06308 -9.05678,-5.03154 -7.04415,5.03155 -26.16402,20.12617 -26.16402,20.12617 0,0 -35.22079,8.05046 -13.082,18.11355 22.13879,10.06309 72.4542,-4.02524 72.4542,-4.02524 0,0 2.01262,-32.20186 0,-31.19555 -2.01262,1.00631 -23.1451,4.02523 -24.1514,2.01261 z"
     id="path28" />
  <polygon
     style="opacity:0.1"
     points="272.773,409.005 307.636,345.09 308.798,271.879 312.284,342.766 278.503,411.185 "
     id="polygon30"
     transform="matrix(0.8659519,0,0,0.8659519,56.33644,49.454978)" />
  <path
     style="fill:#37abc8;stroke-width:0.8659519"
     inkscape:connector-curvature="0"
     d="m 347.38888,266.27231 7.54732,-1.50947 c 0,0 22.64193,16.60409 15.59778,49.81227 -7.04416,33.20817 -38.23972,83.52359 -38.23972,83.52359 0,0 -7.04416,9.05677 -9.05678,11.06939 -2.01261,2.01262 -6.03784,0 -4.02523,3.01892 2.01262,3.01893 -3.01892,5.03154 -3.01892,5.03154 0,0 -22.13879,0 -20.12617,-8.05046 2.01262,-8.05046 36.2271,-65.41004 36.2271,-65.41004 l -5.0315,-53.33434 c 0,0 -4.02528,-26.16402 20.12612,-24.1514 z"
     id="path32" />
  <polygon
     style="opacity:0.1"
     points="347.147,357.873 347.147,349.738 307.636,414.815 "
     id="polygon34"
     transform="matrix(0.8659519,0,0,0.8659519,56.33644,49.454978)" />
  <path
     style="fill:#2f2e41;stroke-width:0.8659519"
     inkscape:connector-curvature="0"
     d="m 290.58375,200.77635 -4.32543,-1.73164 c 0,0 9.04395,-9.95688 21.62695,-9.09104 l -3.53905,-3.89621 c 0,0 8.65079,-3.46323 16.51509,5.62782 4.13412,4.77897 8.91734,10.39637 11.89919,16.72432 h 4.63219 l -1.93331,4.25692 6.76655,4.25691 -6.94521,-0.76463 a 23.555511,23.555511 0 0 1 -0.6569,11.02494 l 0.18618,3.36467 c 0,0 -8.05048,-12.45576 -8.05048,-14.1874 v 4.32907 c 0,0 -4.32539,-3.89615 -4.32539,-6.49358 l -2.35928,3.03036 -1.17961,-4.76202 -14.54898,4.76201 2.35929,-3.89616 -9.04401,1.29872 3.53904,-4.762 c 0,0 -10.22359,5.62782 -10.61688,10.3898 -0.39329,4.76198 -5.50491,10.82267 -5.50491,10.82267 l -2.35928,-4.32909 c 0,0 -3.539,-19.48086 7.86424,-25.97444 z"
     id="path36" />
  <rect
     style="fill:#6c63ff;stroke-width:0.8659519"
     x="411.08591"
     y="191.31139"
     width="373.11832"
     height="73.666954"
     id="rect38" />
  <rect
     style="fill:#e6e6e6;stroke-width:0.8659519"
     x="411.08591"
     y="277.41559"
     width="373.11832"
     height="73.666954"
     id="rect40" />
  <circle
     style="fill:#ffffff;stroke-width:0.8659519"
     cx="450.31113"
     cy="227.66649"
     r="22.00441"
     id="circle42" />
  <rect
     style="fill:#ffffff;stroke-width:0.8659519"
     x="502.93036"
     y="219.05608"
     width="217.174"
     height="4.7835703"
     id="rect44" />
  <rect
     style="fill:#ffffff;stroke-width:0.8659519"
     x="502.93036"
     y="231.49335"
     width="217.174"
     height="4.7835703"
     id="rect46" />
  <circle
     style="fill:#ffffff;stroke-width:0.8659519"
     cx="450.31113"
     cy="314.72742"
     r="22.00441"
     id="circle48" />
  <rect
     style="fill:#ffffff;stroke-width:0.8659519"
     x="502.93036"
     y="306.117"
     width="217.174"
     height="4.7835703"
     id="rect50" />
  <rect
     style="fill:#ffffff;stroke-width:0.8659519"
     x="502.93036"
     y="318.55429"
     width="217.174"
     height="4.7835703"
     id="rect52" />
  <rect
     style="fill:#ffffff;stroke-width:0.8659519"
     x="502.93036"
     y="306.117"
     width="217.174"
     height="4.7835703"
     id="rect54" />
  <rect
     style="fill:#ffffff;stroke-width:0.8659519"
     x="502.93036"
     y="318.55429"
     width="217.174"
     height="4.7835703"
     id="rect56" />
  <rect
     style="fill:#e6e6e6;stroke-width:0.8659519"
     x="411.08591"
     y="362.00034"
     width="373.11832"
     height="73.666954"
     id="rect58" />
  <circle
     style="fill:#ffffff;stroke-width:0.8659519"
     cx="450.31113"
     cy="399.31216"
     r="22.00441"
     id="circle60" />
  <rect
     style="fill:#ffffff;stroke-width:0.8659519"
     x="502.93036"
     y="390.70175"
     width="217.174"
     height="4.7835703"
     id="rect62" />
  <rect
     style="fill:#ffffff;stroke-width:0.8659519"
     x="502.93036"
     y="403.13904"
     width="217.174"
     height="4.7835703"
     id="rect64" />
  <rect
     style="fill:#ffffff;stroke-width:0.8659519"
     x="502.93036"
     y="390.70175"
     width="217.174"
     height="4.7835703"
     id="rect66" />
  <rect
     style="fill:#ffffff;stroke-width:0.8659519"
     x="502.93036"
     y="403.13904"
     width="217.174"
     height="4.7835703"
     id="rect68" />
</svg>
